G04 #@! TF.GenerationSoftware,KiCad,Pcbnew,5.0.0*
G04 #@! TF.CreationDate,2018-08-08T08:48:25-04:00*
G04 #@! TF.ProjectId,telegraph,74656C6567726170682E6B696361645F,rev?*
G04 #@! TF.SameCoordinates,Original*
G04 #@! TF.FileFunction,Legend,Bot*
G04 #@! TF.FilePolarity,Positive*
%FSLAX46Y46*%
G04 Gerber Fmt 4.6, Leading zero omitted, Abs format (unit mm)*
G04 Created by KiCad (PCBNEW 5.0.0) date Wed Aug  8 08:48:25 2018*
%MOMM*%
%LPD*%
G01*
G04 APERTURE LIST*
%ADD10C,0.120000*%
%ADD11C,0.150000*%
G04 APERTURE END LIST*
D10*
G04 #@! TO.C,C16*
X131900000Y-128700000D02*
X132600000Y-128700000D01*
X132600000Y-127500000D02*
X131900000Y-127500000D01*
G04 #@! TO.C,C9*
X117700000Y-133088000D02*
X115700000Y-133088000D01*
X115700000Y-131048000D02*
X117700000Y-131048000D01*
G04 #@! TO.C,C8*
X115450000Y-133798000D02*
X117450000Y-133798000D01*
X117450000Y-135838000D02*
X115450000Y-135838000D01*
G04 #@! TO.C,C13*
X123676000Y-128444000D02*
X125676000Y-128444000D01*
X125676000Y-131404000D02*
X123676000Y-131404000D01*
G04 #@! TO.C,C14*
X125676000Y-134960000D02*
X123676000Y-134960000D01*
X123676000Y-132000000D02*
X125676000Y-132000000D01*
D11*
G04 #@! TO.C,U2*
X133000000Y-121228000D02*
X133000000Y-119128000D01*
X130900000Y-121228000D02*
X133000000Y-121228000D01*
X119400000Y-121228000D02*
X119400000Y-119128000D01*
X121500000Y-121228000D02*
X119400000Y-121228000D01*
X119400000Y-95328000D02*
X119400000Y-104128000D01*
X133000000Y-95328000D02*
X119400000Y-95328000D01*
X133000000Y-104128000D02*
X133000000Y-95328000D01*
X133000000Y-100628000D02*
X119400000Y-100628000D01*
X130600000Y-102228000D02*
X130600000Y-100628000D01*
X133000000Y-102228000D02*
X130600000Y-102228000D01*
D10*
G04 #@! TO.C,R8*
X129500000Y-123788000D02*
X130000000Y-123788000D01*
X130000000Y-124848000D02*
X129500000Y-124848000D01*
G04 #@! TO.C,R9*
X122950000Y-125098000D02*
X122450000Y-125098000D01*
X122450000Y-124038000D02*
X122950000Y-124038000D01*
G04 #@! TO.C,R11*
X129500000Y-122538000D02*
X130000000Y-122538000D01*
X130000000Y-123598000D02*
X129500000Y-123598000D01*
G04 #@! TO.C,R12*
X122450000Y-122788000D02*
X122950000Y-122788000D01*
X122950000Y-123848000D02*
X122450000Y-123848000D01*
G04 #@! TO.C,R1*
X117200000Y-108098000D02*
X116700000Y-108098000D01*
X116700000Y-107038000D02*
X117200000Y-107038000D01*
G04 #@! TO.C,R4*
X116900000Y-115098000D02*
X116400000Y-115098000D01*
X116400000Y-114038000D02*
X116900000Y-114038000D01*
G04 #@! TO.C,C16*
D11*
X132892857Y-127207142D02*
X132940476Y-127254761D01*
X133083333Y-127302380D01*
X133178571Y-127302380D01*
X133321428Y-127254761D01*
X133416666Y-127159523D01*
X133464285Y-127064285D01*
X133511904Y-126873809D01*
X133511904Y-126730952D01*
X133464285Y-126540476D01*
X133416666Y-126445238D01*
X133321428Y-126350000D01*
X133178571Y-126302380D01*
X133083333Y-126302380D01*
X132940476Y-126350000D01*
X132892857Y-126397619D01*
X131940476Y-127302380D02*
X132511904Y-127302380D01*
X132226190Y-127302380D02*
X132226190Y-126302380D01*
X132321428Y-126445238D01*
X132416666Y-126540476D01*
X132511904Y-126588095D01*
X131083333Y-126302380D02*
X131273809Y-126302380D01*
X131369047Y-126350000D01*
X131416666Y-126397619D01*
X131511904Y-126540476D01*
X131559523Y-126730952D01*
X131559523Y-127111904D01*
X131511904Y-127207142D01*
X131464285Y-127254761D01*
X131369047Y-127302380D01*
X131178571Y-127302380D01*
X131083333Y-127254761D01*
X131035714Y-127207142D01*
X130988095Y-127111904D01*
X130988095Y-126873809D01*
X131035714Y-126778571D01*
X131083333Y-126730952D01*
X131178571Y-126683333D01*
X131369047Y-126683333D01*
X131464285Y-126730952D01*
X131511904Y-126778571D01*
X131559523Y-126873809D01*
G04 #@! TO.C,C9*
X112366666Y-132357142D02*
X112414285Y-132404761D01*
X112557142Y-132452380D01*
X112652380Y-132452380D01*
X112795238Y-132404761D01*
X112890476Y-132309523D01*
X112938095Y-132214285D01*
X112985714Y-132023809D01*
X112985714Y-131880952D01*
X112938095Y-131690476D01*
X112890476Y-131595238D01*
X112795238Y-131500000D01*
X112652380Y-131452380D01*
X112557142Y-131452380D01*
X112414285Y-131500000D01*
X112366666Y-131547619D01*
X111890476Y-132452380D02*
X111700000Y-132452380D01*
X111604761Y-132404761D01*
X111557142Y-132357142D01*
X111461904Y-132214285D01*
X111414285Y-132023809D01*
X111414285Y-131642857D01*
X111461904Y-131547619D01*
X111509523Y-131500000D01*
X111604761Y-131452380D01*
X111795238Y-131452380D01*
X111890476Y-131500000D01*
X111938095Y-131547619D01*
X111985714Y-131642857D01*
X111985714Y-131880952D01*
X111938095Y-131976190D01*
X111890476Y-132023809D01*
X111795238Y-132071428D01*
X111604761Y-132071428D01*
X111509523Y-132023809D01*
X111461904Y-131976190D01*
X111414285Y-131880952D01*
G04 #@! TO.C,C8*
X112266666Y-135257142D02*
X112314285Y-135304761D01*
X112457142Y-135352380D01*
X112552380Y-135352380D01*
X112695238Y-135304761D01*
X112790476Y-135209523D01*
X112838095Y-135114285D01*
X112885714Y-134923809D01*
X112885714Y-134780952D01*
X112838095Y-134590476D01*
X112790476Y-134495238D01*
X112695238Y-134400000D01*
X112552380Y-134352380D01*
X112457142Y-134352380D01*
X112314285Y-134400000D01*
X112266666Y-134447619D01*
X111695238Y-134780952D02*
X111790476Y-134733333D01*
X111838095Y-134685714D01*
X111885714Y-134590476D01*
X111885714Y-134542857D01*
X111838095Y-134447619D01*
X111790476Y-134400000D01*
X111695238Y-134352380D01*
X111504761Y-134352380D01*
X111409523Y-134400000D01*
X111361904Y-134447619D01*
X111314285Y-134542857D01*
X111314285Y-134590476D01*
X111361904Y-134685714D01*
X111409523Y-134733333D01*
X111504761Y-134780952D01*
X111695238Y-134780952D01*
X111790476Y-134828571D01*
X111838095Y-134876190D01*
X111885714Y-134971428D01*
X111885714Y-135161904D01*
X111838095Y-135257142D01*
X111790476Y-135304761D01*
X111695238Y-135352380D01*
X111504761Y-135352380D01*
X111409523Y-135304761D01*
X111361904Y-135257142D01*
X111314285Y-135161904D01*
X111314285Y-134971428D01*
X111361904Y-134876190D01*
X111409523Y-134828571D01*
X111504761Y-134780952D01*
G04 #@! TO.C,C13*
X127442857Y-128031142D02*
X127490476Y-128078761D01*
X127633333Y-128126380D01*
X127728571Y-128126380D01*
X127871428Y-128078761D01*
X127966666Y-127983523D01*
X128014285Y-127888285D01*
X128061904Y-127697809D01*
X128061904Y-127554952D01*
X128014285Y-127364476D01*
X127966666Y-127269238D01*
X127871428Y-127174000D01*
X127728571Y-127126380D01*
X127633333Y-127126380D01*
X127490476Y-127174000D01*
X127442857Y-127221619D01*
X126490476Y-128126380D02*
X127061904Y-128126380D01*
X126776190Y-128126380D02*
X126776190Y-127126380D01*
X126871428Y-127269238D01*
X126966666Y-127364476D01*
X127061904Y-127412095D01*
X126157142Y-127126380D02*
X125538095Y-127126380D01*
X125871428Y-127507333D01*
X125728571Y-127507333D01*
X125633333Y-127554952D01*
X125585714Y-127602571D01*
X125538095Y-127697809D01*
X125538095Y-127935904D01*
X125585714Y-128031142D01*
X125633333Y-128078761D01*
X125728571Y-128126380D01*
X126014285Y-128126380D01*
X126109523Y-128078761D01*
X126157142Y-128031142D01*
G04 #@! TO.C,C14*
X125318857Y-136157142D02*
X125366476Y-136204761D01*
X125509333Y-136252380D01*
X125604571Y-136252380D01*
X125747428Y-136204761D01*
X125842666Y-136109523D01*
X125890285Y-136014285D01*
X125937904Y-135823809D01*
X125937904Y-135680952D01*
X125890285Y-135490476D01*
X125842666Y-135395238D01*
X125747428Y-135300000D01*
X125604571Y-135252380D01*
X125509333Y-135252380D01*
X125366476Y-135300000D01*
X125318857Y-135347619D01*
X124366476Y-136252380D02*
X124937904Y-136252380D01*
X124652190Y-136252380D02*
X124652190Y-135252380D01*
X124747428Y-135395238D01*
X124842666Y-135490476D01*
X124937904Y-135538095D01*
X123509333Y-135585714D02*
X123509333Y-136252380D01*
X123747428Y-135204761D02*
X123985523Y-135919047D01*
X123366476Y-135919047D01*
G04 #@! TO.C,TP6*
X136711904Y-111770380D02*
X136140476Y-111770380D01*
X136426190Y-112770380D02*
X136426190Y-111770380D01*
X135807142Y-112770380D02*
X135807142Y-111770380D01*
X135426190Y-111770380D01*
X135330952Y-111818000D01*
X135283333Y-111865619D01*
X135235714Y-111960857D01*
X135235714Y-112103714D01*
X135283333Y-112198952D01*
X135330952Y-112246571D01*
X135426190Y-112294190D01*
X135807142Y-112294190D01*
X134378571Y-111770380D02*
X134569047Y-111770380D01*
X134664285Y-111818000D01*
X134711904Y-111865619D01*
X134807142Y-112008476D01*
X134854761Y-112198952D01*
X134854761Y-112579904D01*
X134807142Y-112675142D01*
X134759523Y-112722761D01*
X134664285Y-112770380D01*
X134473809Y-112770380D01*
X134378571Y-112722761D01*
X134330952Y-112675142D01*
X134283333Y-112579904D01*
X134283333Y-112341809D01*
X134330952Y-112246571D01*
X134378571Y-112198952D01*
X134473809Y-112151333D01*
X134664285Y-112151333D01*
X134759523Y-112198952D01*
X134807142Y-112246571D01*
X134854761Y-112341809D01*
G04 #@! TO.C,TP3*
X134752380Y-113238095D02*
X134752380Y-113809523D01*
X135752380Y-113523809D02*
X134752380Y-113523809D01*
X135752380Y-114142857D02*
X134752380Y-114142857D01*
X134752380Y-114523809D01*
X134800000Y-114619047D01*
X134847619Y-114666666D01*
X134942857Y-114714285D01*
X135085714Y-114714285D01*
X135180952Y-114666666D01*
X135228571Y-114619047D01*
X135276190Y-114523809D01*
X135276190Y-114142857D01*
X134752380Y-115047619D02*
X134752380Y-115666666D01*
X135133333Y-115333333D01*
X135133333Y-115476190D01*
X135180952Y-115571428D01*
X135228571Y-115619047D01*
X135323809Y-115666666D01*
X135561904Y-115666666D01*
X135657142Y-115619047D01*
X135704761Y-115571428D01*
X135752380Y-115476190D01*
X135752380Y-115190476D01*
X135704761Y-115095238D01*
X135657142Y-115047619D01*
G04 #@! TO.C,TP7*
X114652380Y-111038095D02*
X114652380Y-111609523D01*
X115652380Y-111323809D02*
X114652380Y-111323809D01*
X115652380Y-111942857D02*
X114652380Y-111942857D01*
X114652380Y-112323809D01*
X114700000Y-112419047D01*
X114747619Y-112466666D01*
X114842857Y-112514285D01*
X114985714Y-112514285D01*
X115080952Y-112466666D01*
X115128571Y-112419047D01*
X115176190Y-112323809D01*
X115176190Y-111942857D01*
X114652380Y-112847619D02*
X114652380Y-113514285D01*
X115652380Y-113085714D01*
G04 #@! TO.C,TP5*
X118211904Y-120770380D02*
X117640476Y-120770380D01*
X117926190Y-121770380D02*
X117926190Y-120770380D01*
X117307142Y-121770380D02*
X117307142Y-120770380D01*
X116926190Y-120770380D01*
X116830952Y-120818000D01*
X116783333Y-120865619D01*
X116735714Y-120960857D01*
X116735714Y-121103714D01*
X116783333Y-121198952D01*
X116830952Y-121246571D01*
X116926190Y-121294190D01*
X117307142Y-121294190D01*
X115830952Y-120770380D02*
X116307142Y-120770380D01*
X116354761Y-121246571D01*
X116307142Y-121198952D01*
X116211904Y-121151333D01*
X115973809Y-121151333D01*
X115878571Y-121198952D01*
X115830952Y-121246571D01*
X115783333Y-121341809D01*
X115783333Y-121579904D01*
X115830952Y-121675142D01*
X115878571Y-121722761D01*
X115973809Y-121770380D01*
X116211904Y-121770380D01*
X116307142Y-121722761D01*
X116354761Y-121675142D01*
G04 #@! TO.C,TP4*
X114561904Y-116552380D02*
X113990476Y-116552380D01*
X114276190Y-117552380D02*
X114276190Y-116552380D01*
X113657142Y-117552380D02*
X113657142Y-116552380D01*
X113276190Y-116552380D01*
X113180952Y-116600000D01*
X113133333Y-116647619D01*
X113085714Y-116742857D01*
X113085714Y-116885714D01*
X113133333Y-116980952D01*
X113180952Y-117028571D01*
X113276190Y-117076190D01*
X113657142Y-117076190D01*
X112228571Y-116885714D02*
X112228571Y-117552380D01*
X112466666Y-116504761D02*
X112704761Y-117219047D01*
X112085714Y-117219047D01*
G04 #@! TO.C,TP2*
X138052380Y-115938095D02*
X138052380Y-116509523D01*
X139052380Y-116223809D02*
X138052380Y-116223809D01*
X139052380Y-116842857D02*
X138052380Y-116842857D01*
X138052380Y-117223809D01*
X138100000Y-117319047D01*
X138147619Y-117366666D01*
X138242857Y-117414285D01*
X138385714Y-117414285D01*
X138480952Y-117366666D01*
X138528571Y-117319047D01*
X138576190Y-117223809D01*
X138576190Y-116842857D01*
X138147619Y-117795238D02*
X138100000Y-117842857D01*
X138052380Y-117938095D01*
X138052380Y-118176190D01*
X138100000Y-118271428D01*
X138147619Y-118319047D01*
X138242857Y-118366666D01*
X138338095Y-118366666D01*
X138480952Y-118319047D01*
X139052380Y-117747619D01*
X139052380Y-118366666D01*
G04 #@! TO.C,TP1*
X114852380Y-108438095D02*
X114852380Y-109009523D01*
X115852380Y-108723809D02*
X114852380Y-108723809D01*
X115852380Y-109342857D02*
X114852380Y-109342857D01*
X114852380Y-109723809D01*
X114900000Y-109819047D01*
X114947619Y-109866666D01*
X115042857Y-109914285D01*
X115185714Y-109914285D01*
X115280952Y-109866666D01*
X115328571Y-109819047D01*
X115376190Y-109723809D01*
X115376190Y-109342857D01*
X115852380Y-110866666D02*
X115852380Y-110295238D01*
X115852380Y-110580952D02*
X114852380Y-110580952D01*
X114995238Y-110485714D01*
X115090476Y-110390476D01*
X115138095Y-110295238D01*
G04 #@! TO.C,U2*
X120103904Y-121756380D02*
X120103904Y-122565904D01*
X120056285Y-122661142D01*
X120008666Y-122708761D01*
X119913428Y-122756380D01*
X119722952Y-122756380D01*
X119627714Y-122708761D01*
X119580095Y-122661142D01*
X119532476Y-122565904D01*
X119532476Y-121756380D01*
X119103904Y-121851619D02*
X119056285Y-121804000D01*
X118961047Y-121756380D01*
X118722952Y-121756380D01*
X118627714Y-121804000D01*
X118580095Y-121851619D01*
X118532476Y-121946857D01*
X118532476Y-122042095D01*
X118580095Y-122184952D01*
X119151523Y-122756380D01*
X118532476Y-122756380D01*
G04 #@! TO.C,R8*
X129866666Y-126052380D02*
X130200000Y-125576190D01*
X130438095Y-126052380D02*
X130438095Y-125052380D01*
X130057142Y-125052380D01*
X129961904Y-125100000D01*
X129914285Y-125147619D01*
X129866666Y-125242857D01*
X129866666Y-125385714D01*
X129914285Y-125480952D01*
X129961904Y-125528571D01*
X130057142Y-125576190D01*
X130438095Y-125576190D01*
X129295238Y-125480952D02*
X129390476Y-125433333D01*
X129438095Y-125385714D01*
X129485714Y-125290476D01*
X129485714Y-125242857D01*
X129438095Y-125147619D01*
X129390476Y-125100000D01*
X129295238Y-125052380D01*
X129104761Y-125052380D01*
X129009523Y-125100000D01*
X128961904Y-125147619D01*
X128914285Y-125242857D01*
X128914285Y-125290476D01*
X128961904Y-125385714D01*
X129009523Y-125433333D01*
X129104761Y-125480952D01*
X129295238Y-125480952D01*
X129390476Y-125528571D01*
X129438095Y-125576190D01*
X129485714Y-125671428D01*
X129485714Y-125861904D01*
X129438095Y-125957142D01*
X129390476Y-126004761D01*
X129295238Y-126052380D01*
X129104761Y-126052380D01*
X129009523Y-126004761D01*
X128961904Y-125957142D01*
X128914285Y-125861904D01*
X128914285Y-125671428D01*
X128961904Y-125576190D01*
X129009523Y-125528571D01*
X129104761Y-125480952D01*
G04 #@! TO.C,R9*
X121066666Y-125052380D02*
X121400000Y-124576190D01*
X121638095Y-125052380D02*
X121638095Y-124052380D01*
X121257142Y-124052380D01*
X121161904Y-124100000D01*
X121114285Y-124147619D01*
X121066666Y-124242857D01*
X121066666Y-124385714D01*
X121114285Y-124480952D01*
X121161904Y-124528571D01*
X121257142Y-124576190D01*
X121638095Y-124576190D01*
X120590476Y-125052380D02*
X120400000Y-125052380D01*
X120304761Y-125004761D01*
X120257142Y-124957142D01*
X120161904Y-124814285D01*
X120114285Y-124623809D01*
X120114285Y-124242857D01*
X120161904Y-124147619D01*
X120209523Y-124100000D01*
X120304761Y-124052380D01*
X120495238Y-124052380D01*
X120590476Y-124100000D01*
X120638095Y-124147619D01*
X120685714Y-124242857D01*
X120685714Y-124480952D01*
X120638095Y-124576190D01*
X120590476Y-124623809D01*
X120495238Y-124671428D01*
X120304761Y-124671428D01*
X120209523Y-124623809D01*
X120161904Y-124576190D01*
X120114285Y-124480952D01*
G04 #@! TO.C,R11*
X132642857Y-123452380D02*
X132976190Y-122976190D01*
X133214285Y-123452380D02*
X133214285Y-122452380D01*
X132833333Y-122452380D01*
X132738095Y-122500000D01*
X132690476Y-122547619D01*
X132642857Y-122642857D01*
X132642857Y-122785714D01*
X132690476Y-122880952D01*
X132738095Y-122928571D01*
X132833333Y-122976190D01*
X133214285Y-122976190D01*
X131690476Y-123452380D02*
X132261904Y-123452380D01*
X131976190Y-123452380D02*
X131976190Y-122452380D01*
X132071428Y-122595238D01*
X132166666Y-122690476D01*
X132261904Y-122738095D01*
X130738095Y-123452380D02*
X131309523Y-123452380D01*
X131023809Y-123452380D02*
X131023809Y-122452380D01*
X131119047Y-122595238D01*
X131214285Y-122690476D01*
X131309523Y-122738095D01*
G04 #@! TO.C,R12*
X120942857Y-123752380D02*
X121276190Y-123276190D01*
X121514285Y-123752380D02*
X121514285Y-122752380D01*
X121133333Y-122752380D01*
X121038095Y-122800000D01*
X120990476Y-122847619D01*
X120942857Y-122942857D01*
X120942857Y-123085714D01*
X120990476Y-123180952D01*
X121038095Y-123228571D01*
X121133333Y-123276190D01*
X121514285Y-123276190D01*
X119990476Y-123752380D02*
X120561904Y-123752380D01*
X120276190Y-123752380D02*
X120276190Y-122752380D01*
X120371428Y-122895238D01*
X120466666Y-122990476D01*
X120561904Y-123038095D01*
X119609523Y-122847619D02*
X119561904Y-122800000D01*
X119466666Y-122752380D01*
X119228571Y-122752380D01*
X119133333Y-122800000D01*
X119085714Y-122847619D01*
X119038095Y-122942857D01*
X119038095Y-123038095D01*
X119085714Y-123180952D01*
X119657142Y-123752380D01*
X119038095Y-123752380D01*
G04 #@! TO.C,R1*
X117116666Y-106670380D02*
X117450000Y-106194190D01*
X117688095Y-106670380D02*
X117688095Y-105670380D01*
X117307142Y-105670380D01*
X117211904Y-105718000D01*
X117164285Y-105765619D01*
X117116666Y-105860857D01*
X117116666Y-106003714D01*
X117164285Y-106098952D01*
X117211904Y-106146571D01*
X117307142Y-106194190D01*
X117688095Y-106194190D01*
X116164285Y-106670380D02*
X116735714Y-106670380D01*
X116450000Y-106670380D02*
X116450000Y-105670380D01*
X116545238Y-105813238D01*
X116640476Y-105908476D01*
X116735714Y-105956095D01*
G04 #@! TO.C,R4*
X114866666Y-115052380D02*
X115200000Y-114576190D01*
X115438095Y-115052380D02*
X115438095Y-114052380D01*
X115057142Y-114052380D01*
X114961904Y-114100000D01*
X114914285Y-114147619D01*
X114866666Y-114242857D01*
X114866666Y-114385714D01*
X114914285Y-114480952D01*
X114961904Y-114528571D01*
X115057142Y-114576190D01*
X115438095Y-114576190D01*
X114009523Y-114385714D02*
X114009523Y-115052380D01*
X114247619Y-114004761D02*
X114485714Y-114719047D01*
X113866666Y-114719047D01*
G04 #@! TD*
M02*
