G04 #@! TF.GenerationSoftware,KiCad,Pcbnew,5.0.0*
G04 #@! TF.CreationDate,2018-08-08T08:48:25-04:00*
G04 #@! TF.ProjectId,telegraph,74656C6567726170682E6B696361645F,rev?*
G04 #@! TF.SameCoordinates,Original*
G04 #@! TF.FileFunction,Legend,Top*
G04 #@! TF.FilePolarity,Positive*
%FSLAX46Y46*%
G04 Gerber Fmt 4.6, Leading zero omitted, Abs format (unit mm)*
G04 Created by KiCad (PCBNEW 5.0.0) date Wed Aug  8 08:48:25 2018*
%MOMM*%
%LPD*%
G01*
G04 APERTURE LIST*
%ADD10C,0.120000*%
%ADD11C,0.150000*%
G04 APERTURE END LIST*
D10*
G04 #@! TO.C,C17*
X119050000Y-112900000D02*
X119050000Y-113900000D01*
X120750000Y-113900000D02*
X120750000Y-112900000D01*
G04 #@! TO.C,R18*
X132750000Y-128430000D02*
X133250000Y-128430000D01*
X133250000Y-127370000D02*
X132750000Y-127370000D01*
G04 #@! TO.C,R19*
X133250000Y-126370000D02*
X132750000Y-126370000D01*
X132750000Y-127430000D02*
X133250000Y-127430000D01*
G04 #@! TO.C,C3*
X135890000Y-122054000D02*
X135890000Y-122554000D01*
X136830000Y-122554000D02*
X136830000Y-122054000D01*
G04 #@! TO.C,C4*
X134798000Y-122554000D02*
X134798000Y-122054000D01*
X133858000Y-122054000D02*
X133858000Y-122554000D01*
G04 #@! TO.C,C12*
X122394000Y-125822000D02*
X122894000Y-125822000D01*
X122894000Y-124882000D02*
X122394000Y-124882000D01*
G04 #@! TO.C,C11*
X120300000Y-135218000D02*
X121000000Y-135218000D01*
X121000000Y-136418000D02*
X120300000Y-136418000D01*
G04 #@! TO.C,C10*
X113450000Y-127338000D02*
X115450000Y-127338000D01*
X115450000Y-125298000D02*
X113450000Y-125298000D01*
G04 #@! TO.C,C7*
X128680000Y-106818000D02*
X128680000Y-108818000D01*
X130720000Y-108818000D02*
X130720000Y-106818000D01*
G04 #@! TO.C,C6*
X131970000Y-116068000D02*
X131970000Y-114068000D01*
X129930000Y-114068000D02*
X129930000Y-116068000D01*
G04 #@! TO.C,C5*
X132430000Y-114068000D02*
X132430000Y-116068000D01*
X134470000Y-116068000D02*
X134470000Y-114068000D01*
G04 #@! TO.C,C2*
X128248000Y-120784000D02*
X130248000Y-120784000D01*
X130248000Y-118744000D02*
X128248000Y-118744000D01*
G04 #@! TO.C,C1*
X128248000Y-123324000D02*
X130248000Y-123324000D01*
X130248000Y-121284000D02*
X128248000Y-121284000D01*
G04 #@! TO.C,C15*
X135700000Y-107798000D02*
X133700000Y-107798000D01*
X133700000Y-109838000D02*
X135700000Y-109838000D01*
G04 #@! TO.C,Y1*
X135800000Y-119418000D02*
X135800000Y-119618000D01*
X136400000Y-118518000D02*
X135800000Y-119418000D01*
X137700000Y-119418000D02*
X137700000Y-119618000D01*
X137100000Y-118518000D02*
X137700000Y-119418000D01*
X135550000Y-118518000D02*
X137950000Y-118518000D01*
X135550000Y-112118000D02*
X135550000Y-118518000D01*
X137950000Y-112118000D02*
X135550000Y-112118000D01*
X137950000Y-118518000D02*
X137950000Y-112118000D01*
D11*
G04 #@! TO.C,L1*
X125408000Y-131788000D02*
X125408000Y-136188000D01*
X128008000Y-131788000D02*
X128008000Y-136188000D01*
D10*
G04 #@! TO.C,D3*
X120800000Y-120268000D02*
X123400000Y-120268000D01*
X120800000Y-121368000D02*
X123400000Y-121368000D01*
X120800000Y-120268000D02*
X120800000Y-121368000D01*
G04 #@! TO.C,D2*
X125050000Y-105668000D02*
X123950000Y-105668000D01*
X123950000Y-105668000D02*
X123950000Y-108268000D01*
X125050000Y-105668000D02*
X125050000Y-108268000D01*
G04 #@! TO.C,D1*
X126800000Y-105768000D02*
X126800000Y-108368000D01*
X125700000Y-105768000D02*
X125700000Y-108368000D01*
X126800000Y-105768000D02*
X125700000Y-105768000D01*
G04 #@! TO.C,R7*
X128670000Y-112068000D02*
X128670000Y-112568000D01*
X129730000Y-112568000D02*
X129730000Y-112068000D01*
G04 #@! TO.C,R13*
X116920000Y-129568000D02*
X116920000Y-130068000D01*
X117980000Y-130068000D02*
X117980000Y-129568000D01*
G04 #@! TO.C,R14*
X126450000Y-129394000D02*
X125950000Y-129394000D01*
X125950000Y-130454000D02*
X126450000Y-130454000D01*
G04 #@! TO.C,R16*
X134950000Y-110288000D02*
X134450000Y-110288000D01*
X134450000Y-111348000D02*
X134950000Y-111348000D01*
G04 #@! TO.C,R17*
X126450000Y-127870000D02*
X125950000Y-127870000D01*
X125950000Y-128930000D02*
X126450000Y-128930000D01*
G04 #@! TO.C,R15*
X126700000Y-126032000D02*
X125700000Y-126032000D01*
X125700000Y-124672000D02*
X126700000Y-124672000D01*
G04 #@! TO.C,R2*
X122100000Y-107448000D02*
X121100000Y-107448000D01*
X121100000Y-106088000D02*
X122100000Y-106088000D01*
G04 #@! TO.C,R3*
X120950000Y-107838000D02*
X121950000Y-107838000D01*
X121950000Y-109198000D02*
X120950000Y-109198000D01*
G04 #@! TO.C,R6*
X120620000Y-117560000D02*
X121620000Y-117560000D01*
X121620000Y-118920000D02*
X120620000Y-118920000D01*
G04 #@! TO.C,R10*
X122050000Y-122138000D02*
X123050000Y-122138000D01*
X123050000Y-123498000D02*
X122050000Y-123498000D01*
G04 #@! TO.C,R5*
X121704000Y-117396000D02*
X120704000Y-117396000D01*
X120704000Y-116036000D02*
X121704000Y-116036000D01*
G04 #@! TO.C,SW1*
X140120000Y-112838000D02*
X140120000Y-115438000D01*
X140120000Y-115438000D02*
X142780000Y-115438000D01*
X142780000Y-115438000D02*
X142780000Y-112838000D01*
X142780000Y-112838000D02*
X140120000Y-112838000D01*
X140120000Y-111568000D02*
X140120000Y-110238000D01*
X140120000Y-110238000D02*
X141450000Y-110238000D01*
G04 #@! TO.C,J2*
X109862000Y-127504000D02*
X108532000Y-127504000D01*
X109862000Y-126174000D02*
X109862000Y-127504000D01*
X107202000Y-124904000D02*
X109862000Y-124904000D01*
X107202000Y-122304000D02*
X107202000Y-124904000D01*
X109862000Y-122304000D02*
X107202000Y-122304000D01*
X109862000Y-124904000D02*
X109862000Y-122304000D01*
G04 #@! TO.C,J1*
X135150000Y-134810000D02*
X135150000Y-133540000D01*
X133820000Y-134810000D02*
X135150000Y-134810000D01*
X132550000Y-132210000D02*
X132550000Y-134810000D01*
X135150000Y-132210000D02*
X132550000Y-132210000D01*
X135150000Y-129610000D02*
X135150000Y-132210000D01*
X129950000Y-129610000D02*
X135150000Y-129610000D01*
X129950000Y-134810000D02*
X129950000Y-129610000D01*
X132550000Y-134810000D02*
X129950000Y-134810000D01*
D11*
G04 #@! TO.C,U3*
X118690000Y-132074000D02*
X118470000Y-132354000D01*
X118470000Y-132354000D02*
X118470000Y-127774000D01*
X118470000Y-127774000D02*
X118690000Y-127774000D01*
X123550000Y-127774000D02*
X123770000Y-127774000D01*
X123770000Y-127774000D02*
X123770000Y-132074000D01*
X123770000Y-132074000D02*
X123550000Y-132074000D01*
X118745000Y-132624000D02*
G75*
G03X118745000Y-132624000I-150000J0D01*
G01*
G04 #@! TO.C,Q1*
X109832000Y-128830000D02*
X109832000Y-129330000D01*
X109332000Y-128830000D02*
X109832000Y-128830000D01*
X107232000Y-128830000D02*
X107232000Y-129330000D01*
X107232000Y-128830000D02*
X107732000Y-128830000D01*
G04 #@! TO.C,U1*
X124130000Y-117018000D02*
X123750000Y-116138000D01*
X123750000Y-113998000D02*
X123750000Y-113118000D01*
X123750000Y-113118000D02*
X124130000Y-113118000D01*
X128270000Y-113118000D02*
X128650000Y-113118000D01*
X128650000Y-113118000D02*
X128650000Y-113998000D01*
X128650000Y-116138000D02*
X128650000Y-117018000D01*
X128650000Y-117018000D02*
X128270000Y-117018000D01*
X123725000Y-117043000D02*
G75*
G03X123725000Y-117043000I-150000J0D01*
G01*
G04 #@! TO.C,C17*
X118657142Y-114042857D02*
X118704761Y-114090476D01*
X118752380Y-114233333D01*
X118752380Y-114328571D01*
X118704761Y-114471428D01*
X118609523Y-114566666D01*
X118514285Y-114614285D01*
X118323809Y-114661904D01*
X118180952Y-114661904D01*
X117990476Y-114614285D01*
X117895238Y-114566666D01*
X117800000Y-114471428D01*
X117752380Y-114328571D01*
X117752380Y-114233333D01*
X117800000Y-114090476D01*
X117847619Y-114042857D01*
X118752380Y-113090476D02*
X118752380Y-113661904D01*
X118752380Y-113376190D02*
X117752380Y-113376190D01*
X117895238Y-113471428D01*
X117990476Y-113566666D01*
X118038095Y-113661904D01*
X117752380Y-112757142D02*
X117752380Y-112090476D01*
X118752380Y-112519047D01*
G04 #@! TO.C,R18*
X129957142Y-128352380D02*
X129623809Y-127876190D01*
X129385714Y-128352380D02*
X129385714Y-127352380D01*
X129766666Y-127352380D01*
X129861904Y-127400000D01*
X129909523Y-127447619D01*
X129957142Y-127542857D01*
X129957142Y-127685714D01*
X129909523Y-127780952D01*
X129861904Y-127828571D01*
X129766666Y-127876190D01*
X129385714Y-127876190D01*
X130909523Y-128352380D02*
X130338095Y-128352380D01*
X130623809Y-128352380D02*
X130623809Y-127352380D01*
X130528571Y-127495238D01*
X130433333Y-127590476D01*
X130338095Y-127638095D01*
X131480952Y-127780952D02*
X131385714Y-127733333D01*
X131338095Y-127685714D01*
X131290476Y-127590476D01*
X131290476Y-127542857D01*
X131338095Y-127447619D01*
X131385714Y-127400000D01*
X131480952Y-127352380D01*
X131671428Y-127352380D01*
X131766666Y-127400000D01*
X131814285Y-127447619D01*
X131861904Y-127542857D01*
X131861904Y-127590476D01*
X131814285Y-127685714D01*
X131766666Y-127733333D01*
X131671428Y-127780952D01*
X131480952Y-127780952D01*
X131385714Y-127828571D01*
X131338095Y-127876190D01*
X131290476Y-127971428D01*
X131290476Y-128161904D01*
X131338095Y-128257142D01*
X131385714Y-128304761D01*
X131480952Y-128352380D01*
X131671428Y-128352380D01*
X131766666Y-128304761D01*
X131814285Y-128257142D01*
X131861904Y-128161904D01*
X131861904Y-127971428D01*
X131814285Y-127876190D01*
X131766666Y-127828571D01*
X131671428Y-127780952D01*
G04 #@! TO.C,R19*
X129957142Y-127152380D02*
X129623809Y-126676190D01*
X129385714Y-127152380D02*
X129385714Y-126152380D01*
X129766666Y-126152380D01*
X129861904Y-126200000D01*
X129909523Y-126247619D01*
X129957142Y-126342857D01*
X129957142Y-126485714D01*
X129909523Y-126580952D01*
X129861904Y-126628571D01*
X129766666Y-126676190D01*
X129385714Y-126676190D01*
X130909523Y-127152380D02*
X130338095Y-127152380D01*
X130623809Y-127152380D02*
X130623809Y-126152380D01*
X130528571Y-126295238D01*
X130433333Y-126390476D01*
X130338095Y-126438095D01*
X131385714Y-127152380D02*
X131576190Y-127152380D01*
X131671428Y-127104761D01*
X131719047Y-127057142D01*
X131814285Y-126914285D01*
X131861904Y-126723809D01*
X131861904Y-126342857D01*
X131814285Y-126247619D01*
X131766666Y-126200000D01*
X131671428Y-126152380D01*
X131480952Y-126152380D01*
X131385714Y-126200000D01*
X131338095Y-126247619D01*
X131290476Y-126342857D01*
X131290476Y-126580952D01*
X131338095Y-126676190D01*
X131385714Y-126723809D01*
X131480952Y-126771428D01*
X131671428Y-126771428D01*
X131766666Y-126723809D01*
X131814285Y-126676190D01*
X131861904Y-126580952D01*
G04 #@! TO.C,C3*
X137987142Y-122470666D02*
X138034761Y-122518285D01*
X138082380Y-122661142D01*
X138082380Y-122756380D01*
X138034761Y-122899238D01*
X137939523Y-122994476D01*
X137844285Y-123042095D01*
X137653809Y-123089714D01*
X137510952Y-123089714D01*
X137320476Y-123042095D01*
X137225238Y-122994476D01*
X137130000Y-122899238D01*
X137082380Y-122756380D01*
X137082380Y-122661142D01*
X137130000Y-122518285D01*
X137177619Y-122470666D01*
X137082380Y-122137333D02*
X137082380Y-121518285D01*
X137463333Y-121851619D01*
X137463333Y-121708761D01*
X137510952Y-121613523D01*
X137558571Y-121565904D01*
X137653809Y-121518285D01*
X137891904Y-121518285D01*
X137987142Y-121565904D01*
X138034761Y-121613523D01*
X138082380Y-121708761D01*
X138082380Y-121994476D01*
X138034761Y-122089714D01*
X137987142Y-122137333D01*
G04 #@! TO.C,C4*
X135955142Y-122470666D02*
X136002761Y-122518285D01*
X136050380Y-122661142D01*
X136050380Y-122756380D01*
X136002761Y-122899238D01*
X135907523Y-122994476D01*
X135812285Y-123042095D01*
X135621809Y-123089714D01*
X135478952Y-123089714D01*
X135288476Y-123042095D01*
X135193238Y-122994476D01*
X135098000Y-122899238D01*
X135050380Y-122756380D01*
X135050380Y-122661142D01*
X135098000Y-122518285D01*
X135145619Y-122470666D01*
X135383714Y-121613523D02*
X136050380Y-121613523D01*
X135002761Y-121851619D02*
X135717047Y-122089714D01*
X135717047Y-121470666D01*
G04 #@! TO.C,C12*
X122001142Y-124439142D02*
X121953523Y-124486761D01*
X121810666Y-124534380D01*
X121715428Y-124534380D01*
X121572571Y-124486761D01*
X121477333Y-124391523D01*
X121429714Y-124296285D01*
X121382095Y-124105809D01*
X121382095Y-123962952D01*
X121429714Y-123772476D01*
X121477333Y-123677238D01*
X121572571Y-123582000D01*
X121715428Y-123534380D01*
X121810666Y-123534380D01*
X121953523Y-123582000D01*
X122001142Y-123629619D01*
X122953523Y-124534380D02*
X122382095Y-124534380D01*
X122667809Y-124534380D02*
X122667809Y-123534380D01*
X122572571Y-123677238D01*
X122477333Y-123772476D01*
X122382095Y-123820095D01*
X123334476Y-123629619D02*
X123382095Y-123582000D01*
X123477333Y-123534380D01*
X123715428Y-123534380D01*
X123810666Y-123582000D01*
X123858285Y-123629619D01*
X123905904Y-123724857D01*
X123905904Y-123820095D01*
X123858285Y-123962952D01*
X123286857Y-124534380D01*
X123905904Y-124534380D01*
G04 #@! TO.C,C11*
X120007142Y-137425142D02*
X119959523Y-137472761D01*
X119816666Y-137520380D01*
X119721428Y-137520380D01*
X119578571Y-137472761D01*
X119483333Y-137377523D01*
X119435714Y-137282285D01*
X119388095Y-137091809D01*
X119388095Y-136948952D01*
X119435714Y-136758476D01*
X119483333Y-136663238D01*
X119578571Y-136568000D01*
X119721428Y-136520380D01*
X119816666Y-136520380D01*
X119959523Y-136568000D01*
X120007142Y-136615619D01*
X120959523Y-137520380D02*
X120388095Y-137520380D01*
X120673809Y-137520380D02*
X120673809Y-136520380D01*
X120578571Y-136663238D01*
X120483333Y-136758476D01*
X120388095Y-136806095D01*
X121911904Y-137520380D02*
X121340476Y-137520380D01*
X121626190Y-137520380D02*
X121626190Y-136520380D01*
X121530952Y-136663238D01*
X121435714Y-136758476D01*
X121340476Y-136806095D01*
G04 #@! TO.C,C10*
X113807142Y-124925142D02*
X113759523Y-124972761D01*
X113616666Y-125020380D01*
X113521428Y-125020380D01*
X113378571Y-124972761D01*
X113283333Y-124877523D01*
X113235714Y-124782285D01*
X113188095Y-124591809D01*
X113188095Y-124448952D01*
X113235714Y-124258476D01*
X113283333Y-124163238D01*
X113378571Y-124068000D01*
X113521428Y-124020380D01*
X113616666Y-124020380D01*
X113759523Y-124068000D01*
X113807142Y-124115619D01*
X114759523Y-125020380D02*
X114188095Y-125020380D01*
X114473809Y-125020380D02*
X114473809Y-124020380D01*
X114378571Y-124163238D01*
X114283333Y-124258476D01*
X114188095Y-124306095D01*
X115378571Y-124020380D02*
X115473809Y-124020380D01*
X115569047Y-124068000D01*
X115616666Y-124115619D01*
X115664285Y-124210857D01*
X115711904Y-124401333D01*
X115711904Y-124639428D01*
X115664285Y-124829904D01*
X115616666Y-124925142D01*
X115569047Y-124972761D01*
X115473809Y-125020380D01*
X115378571Y-125020380D01*
X115283333Y-124972761D01*
X115235714Y-124925142D01*
X115188095Y-124829904D01*
X115140476Y-124639428D01*
X115140476Y-124401333D01*
X115188095Y-124210857D01*
X115235714Y-124115619D01*
X115283333Y-124068000D01*
X115378571Y-124020380D01*
G04 #@! TO.C,C7*
X130057142Y-103466666D02*
X130104761Y-103514285D01*
X130152380Y-103657142D01*
X130152380Y-103752380D01*
X130104761Y-103895238D01*
X130009523Y-103990476D01*
X129914285Y-104038095D01*
X129723809Y-104085714D01*
X129580952Y-104085714D01*
X129390476Y-104038095D01*
X129295238Y-103990476D01*
X129200000Y-103895238D01*
X129152380Y-103752380D01*
X129152380Y-103657142D01*
X129200000Y-103514285D01*
X129247619Y-103466666D01*
X129152380Y-103133333D02*
X129152380Y-102466666D01*
X130152380Y-102895238D01*
G04 #@! TO.C,C6*
X129957142Y-115234666D02*
X130004761Y-115282285D01*
X130052380Y-115425142D01*
X130052380Y-115520380D01*
X130004761Y-115663238D01*
X129909523Y-115758476D01*
X129814285Y-115806095D01*
X129623809Y-115853714D01*
X129480952Y-115853714D01*
X129290476Y-115806095D01*
X129195238Y-115758476D01*
X129100000Y-115663238D01*
X129052380Y-115520380D01*
X129052380Y-115425142D01*
X129100000Y-115282285D01*
X129147619Y-115234666D01*
X129052380Y-114377523D02*
X129052380Y-114568000D01*
X129100000Y-114663238D01*
X129147619Y-114710857D01*
X129290476Y-114806095D01*
X129480952Y-114853714D01*
X129861904Y-114853714D01*
X129957142Y-114806095D01*
X130004761Y-114758476D01*
X130052380Y-114663238D01*
X130052380Y-114472761D01*
X130004761Y-114377523D01*
X129957142Y-114329904D01*
X129861904Y-114282285D01*
X129623809Y-114282285D01*
X129528571Y-114329904D01*
X129480952Y-114377523D01*
X129433333Y-114472761D01*
X129433333Y-114663238D01*
X129480952Y-114758476D01*
X129528571Y-114806095D01*
X129623809Y-114853714D01*
G04 #@! TO.C,C5*
X135457142Y-115166666D02*
X135504761Y-115214285D01*
X135552380Y-115357142D01*
X135552380Y-115452380D01*
X135504761Y-115595238D01*
X135409523Y-115690476D01*
X135314285Y-115738095D01*
X135123809Y-115785714D01*
X134980952Y-115785714D01*
X134790476Y-115738095D01*
X134695238Y-115690476D01*
X134600000Y-115595238D01*
X134552380Y-115452380D01*
X134552380Y-115357142D01*
X134600000Y-115214285D01*
X134647619Y-115166666D01*
X134552380Y-114261904D02*
X134552380Y-114738095D01*
X135028571Y-114785714D01*
X134980952Y-114738095D01*
X134933333Y-114642857D01*
X134933333Y-114404761D01*
X134980952Y-114309523D01*
X135028571Y-114261904D01*
X135123809Y-114214285D01*
X135361904Y-114214285D01*
X135457142Y-114261904D01*
X135504761Y-114309523D01*
X135552380Y-114404761D01*
X135552380Y-114642857D01*
X135504761Y-114738095D01*
X135457142Y-114785714D01*
G04 #@! TO.C,C2*
X129081333Y-118371142D02*
X129033714Y-118418761D01*
X128890857Y-118466380D01*
X128795619Y-118466380D01*
X128652761Y-118418761D01*
X128557523Y-118323523D01*
X128509904Y-118228285D01*
X128462285Y-118037809D01*
X128462285Y-117894952D01*
X128509904Y-117704476D01*
X128557523Y-117609238D01*
X128652761Y-117514000D01*
X128795619Y-117466380D01*
X128890857Y-117466380D01*
X129033714Y-117514000D01*
X129081333Y-117561619D01*
X129462285Y-117561619D02*
X129509904Y-117514000D01*
X129605142Y-117466380D01*
X129843238Y-117466380D01*
X129938476Y-117514000D01*
X129986095Y-117561619D01*
X130033714Y-117656857D01*
X130033714Y-117752095D01*
X129986095Y-117894952D01*
X129414666Y-118466380D01*
X130033714Y-118466380D01*
G04 #@! TO.C,C1*
X129081333Y-124411142D02*
X129033714Y-124458761D01*
X128890857Y-124506380D01*
X128795619Y-124506380D01*
X128652761Y-124458761D01*
X128557523Y-124363523D01*
X128509904Y-124268285D01*
X128462285Y-124077809D01*
X128462285Y-123934952D01*
X128509904Y-123744476D01*
X128557523Y-123649238D01*
X128652761Y-123554000D01*
X128795619Y-123506380D01*
X128890857Y-123506380D01*
X129033714Y-123554000D01*
X129081333Y-123601619D01*
X130033714Y-124506380D02*
X129462285Y-124506380D01*
X129748000Y-124506380D02*
X129748000Y-123506380D01*
X129652761Y-123649238D01*
X129557523Y-123744476D01*
X129462285Y-123792095D01*
G04 #@! TO.C,C15*
X133957142Y-107357142D02*
X133909523Y-107404761D01*
X133766666Y-107452380D01*
X133671428Y-107452380D01*
X133528571Y-107404761D01*
X133433333Y-107309523D01*
X133385714Y-107214285D01*
X133338095Y-107023809D01*
X133338095Y-106880952D01*
X133385714Y-106690476D01*
X133433333Y-106595238D01*
X133528571Y-106500000D01*
X133671428Y-106452380D01*
X133766666Y-106452380D01*
X133909523Y-106500000D01*
X133957142Y-106547619D01*
X134909523Y-107452380D02*
X134338095Y-107452380D01*
X134623809Y-107452380D02*
X134623809Y-106452380D01*
X134528571Y-106595238D01*
X134433333Y-106690476D01*
X134338095Y-106738095D01*
X135814285Y-106452380D02*
X135338095Y-106452380D01*
X135290476Y-106928571D01*
X135338095Y-106880952D01*
X135433333Y-106833333D01*
X135671428Y-106833333D01*
X135766666Y-106880952D01*
X135814285Y-106928571D01*
X135861904Y-107023809D01*
X135861904Y-107261904D01*
X135814285Y-107357142D01*
X135766666Y-107404761D01*
X135671428Y-107452380D01*
X135433333Y-107452380D01*
X135338095Y-107404761D01*
X135290476Y-107357142D01*
G04 #@! TO.C,Y1*
X139246190Y-119169190D02*
X139722380Y-119169190D01*
X138722380Y-119502523D02*
X139246190Y-119169190D01*
X138722380Y-118835857D01*
X139722380Y-117978714D02*
X139722380Y-118550142D01*
X139722380Y-118264428D02*
X138722380Y-118264428D01*
X138865238Y-118359666D01*
X138960476Y-118454904D01*
X139008095Y-118550142D01*
G04 #@! TO.C,L1*
X129360380Y-134154666D02*
X129360380Y-134630857D01*
X128360380Y-134630857D01*
X129360380Y-133297523D02*
X129360380Y-133868952D01*
X129360380Y-133583238D02*
X128360380Y-133583238D01*
X128503238Y-133678476D01*
X128598476Y-133773714D01*
X128646095Y-133868952D01*
G04 #@! TO.C,D3*
X118761904Y-121452380D02*
X118761904Y-120452380D01*
X119000000Y-120452380D01*
X119142857Y-120500000D01*
X119238095Y-120595238D01*
X119285714Y-120690476D01*
X119333333Y-120880952D01*
X119333333Y-121023809D01*
X119285714Y-121214285D01*
X119238095Y-121309523D01*
X119142857Y-121404761D01*
X119000000Y-121452380D01*
X118761904Y-121452380D01*
X119666666Y-120452380D02*
X120285714Y-120452380D01*
X119952380Y-120833333D01*
X120095238Y-120833333D01*
X120190476Y-120880952D01*
X120238095Y-120928571D01*
X120285714Y-121023809D01*
X120285714Y-121261904D01*
X120238095Y-121357142D01*
X120190476Y-121404761D01*
X120095238Y-121452380D01*
X119809523Y-121452380D01*
X119714285Y-121404761D01*
X119666666Y-121357142D01*
G04 #@! TO.C,D2*
X125052380Y-105238095D02*
X124052380Y-105238095D01*
X124052380Y-105000000D01*
X124100000Y-104857142D01*
X124195238Y-104761904D01*
X124290476Y-104714285D01*
X124480952Y-104666666D01*
X124623809Y-104666666D01*
X124814285Y-104714285D01*
X124909523Y-104761904D01*
X125004761Y-104857142D01*
X125052380Y-105000000D01*
X125052380Y-105238095D01*
X124147619Y-104285714D02*
X124100000Y-104238095D01*
X124052380Y-104142857D01*
X124052380Y-103904761D01*
X124100000Y-103809523D01*
X124147619Y-103761904D01*
X124242857Y-103714285D01*
X124338095Y-103714285D01*
X124480952Y-103761904D01*
X125052380Y-104333333D01*
X125052380Y-103714285D01*
G04 #@! TO.C,D1*
X126652380Y-105238095D02*
X125652380Y-105238095D01*
X125652380Y-105000000D01*
X125700000Y-104857142D01*
X125795238Y-104761904D01*
X125890476Y-104714285D01*
X126080952Y-104666666D01*
X126223809Y-104666666D01*
X126414285Y-104714285D01*
X126509523Y-104761904D01*
X126604761Y-104857142D01*
X126652380Y-105000000D01*
X126652380Y-105238095D01*
X126652380Y-103714285D02*
X126652380Y-104285714D01*
X126652380Y-104000000D02*
X125652380Y-104000000D01*
X125795238Y-104095238D01*
X125890476Y-104190476D01*
X125938095Y-104285714D01*
G04 #@! TO.C,TP9*
X134438095Y-124052380D02*
X135009523Y-124052380D01*
X134723809Y-125052380D02*
X134723809Y-124052380D01*
X135342857Y-125052380D02*
X135342857Y-124052380D01*
X135723809Y-124052380D01*
X135819047Y-124100000D01*
X135866666Y-124147619D01*
X135914285Y-124242857D01*
X135914285Y-124385714D01*
X135866666Y-124480952D01*
X135819047Y-124528571D01*
X135723809Y-124576190D01*
X135342857Y-124576190D01*
X136390476Y-125052380D02*
X136580952Y-125052380D01*
X136676190Y-125004761D01*
X136723809Y-124957142D01*
X136819047Y-124814285D01*
X136866666Y-124623809D01*
X136866666Y-124242857D01*
X136819047Y-124147619D01*
X136771428Y-124100000D01*
X136676190Y-124052380D01*
X136485714Y-124052380D01*
X136390476Y-124100000D01*
X136342857Y-124147619D01*
X136295238Y-124242857D01*
X136295238Y-124480952D01*
X136342857Y-124576190D01*
X136390476Y-124623809D01*
X136485714Y-124671428D01*
X136676190Y-124671428D01*
X136771428Y-124623809D01*
X136819047Y-124576190D01*
X136866666Y-124480952D01*
G04 #@! TO.C,TP8*
X109938095Y-131520380D02*
X110509523Y-131520380D01*
X110223809Y-132520380D02*
X110223809Y-131520380D01*
X110842857Y-132520380D02*
X110842857Y-131520380D01*
X111223809Y-131520380D01*
X111319047Y-131568000D01*
X111366666Y-131615619D01*
X111414285Y-131710857D01*
X111414285Y-131853714D01*
X111366666Y-131948952D01*
X111319047Y-131996571D01*
X111223809Y-132044190D01*
X110842857Y-132044190D01*
X111985714Y-131948952D02*
X111890476Y-131901333D01*
X111842857Y-131853714D01*
X111795238Y-131758476D01*
X111795238Y-131710857D01*
X111842857Y-131615619D01*
X111890476Y-131568000D01*
X111985714Y-131520380D01*
X112176190Y-131520380D01*
X112271428Y-131568000D01*
X112319047Y-131615619D01*
X112366666Y-131710857D01*
X112366666Y-131758476D01*
X112319047Y-131853714D01*
X112271428Y-131901333D01*
X112176190Y-131948952D01*
X111985714Y-131948952D01*
X111890476Y-131996571D01*
X111842857Y-132044190D01*
X111795238Y-132139428D01*
X111795238Y-132329904D01*
X111842857Y-132425142D01*
X111890476Y-132472761D01*
X111985714Y-132520380D01*
X112176190Y-132520380D01*
X112271428Y-132472761D01*
X112319047Y-132425142D01*
X112366666Y-132329904D01*
X112366666Y-132139428D01*
X112319047Y-132044190D01*
X112271428Y-131996571D01*
X112176190Y-131948952D01*
G04 #@! TO.C,TP10*
X138352380Y-112138095D02*
X138352380Y-111566666D01*
X139352380Y-111852380D02*
X138352380Y-111852380D01*
X139352380Y-111233333D02*
X138352380Y-111233333D01*
X138352380Y-110852380D01*
X138400000Y-110757142D01*
X138447619Y-110709523D01*
X138542857Y-110661904D01*
X138685714Y-110661904D01*
X138780952Y-110709523D01*
X138828571Y-110757142D01*
X138876190Y-110852380D01*
X138876190Y-111233333D01*
X139352380Y-109709523D02*
X139352380Y-110280952D01*
X139352380Y-109995238D02*
X138352380Y-109995238D01*
X138495238Y-110090476D01*
X138590476Y-110185714D01*
X138638095Y-110280952D01*
X138352380Y-109090476D02*
X138352380Y-108995238D01*
X138400000Y-108900000D01*
X138447619Y-108852380D01*
X138542857Y-108804761D01*
X138733333Y-108757142D01*
X138971428Y-108757142D01*
X139161904Y-108804761D01*
X139257142Y-108852380D01*
X139304761Y-108900000D01*
X139352380Y-108995238D01*
X139352380Y-109090476D01*
X139304761Y-109185714D01*
X139257142Y-109233333D01*
X139161904Y-109280952D01*
X138971428Y-109328571D01*
X138733333Y-109328571D01*
X138542857Y-109280952D01*
X138447619Y-109233333D01*
X138400000Y-109185714D01*
X138352380Y-109090476D01*
G04 #@! TO.C,R7*
X127752380Y-111866666D02*
X127276190Y-112200000D01*
X127752380Y-112438095D02*
X126752380Y-112438095D01*
X126752380Y-112057142D01*
X126800000Y-111961904D01*
X126847619Y-111914285D01*
X126942857Y-111866666D01*
X127085714Y-111866666D01*
X127180952Y-111914285D01*
X127228571Y-111961904D01*
X127276190Y-112057142D01*
X127276190Y-112438095D01*
X126752380Y-111533333D02*
X126752380Y-110866666D01*
X127752380Y-111295238D01*
G04 #@! TO.C,R13*
X116552380Y-130460857D02*
X116076190Y-130794190D01*
X116552380Y-131032285D02*
X115552380Y-131032285D01*
X115552380Y-130651333D01*
X115600000Y-130556095D01*
X115647619Y-130508476D01*
X115742857Y-130460857D01*
X115885714Y-130460857D01*
X115980952Y-130508476D01*
X116028571Y-130556095D01*
X116076190Y-130651333D01*
X116076190Y-131032285D01*
X116552380Y-129508476D02*
X116552380Y-130079904D01*
X116552380Y-129794190D02*
X115552380Y-129794190D01*
X115695238Y-129889428D01*
X115790476Y-129984666D01*
X115838095Y-130079904D01*
X115552380Y-129175142D02*
X115552380Y-128556095D01*
X115933333Y-128889428D01*
X115933333Y-128746571D01*
X115980952Y-128651333D01*
X116028571Y-128603714D01*
X116123809Y-128556095D01*
X116361904Y-128556095D01*
X116457142Y-128603714D01*
X116504761Y-128651333D01*
X116552380Y-128746571D01*
X116552380Y-129032285D01*
X116504761Y-129127523D01*
X116457142Y-129175142D01*
G04 #@! TO.C,R14*
X127757142Y-130352380D02*
X127423809Y-129876190D01*
X127185714Y-130352380D02*
X127185714Y-129352380D01*
X127566666Y-129352380D01*
X127661904Y-129400000D01*
X127709523Y-129447619D01*
X127757142Y-129542857D01*
X127757142Y-129685714D01*
X127709523Y-129780952D01*
X127661904Y-129828571D01*
X127566666Y-129876190D01*
X127185714Y-129876190D01*
X128709523Y-130352380D02*
X128138095Y-130352380D01*
X128423809Y-130352380D02*
X128423809Y-129352380D01*
X128328571Y-129495238D01*
X128233333Y-129590476D01*
X128138095Y-129638095D01*
X129566666Y-129685714D02*
X129566666Y-130352380D01*
X129328571Y-129304761D02*
X129090476Y-130019047D01*
X129709523Y-130019047D01*
G04 #@! TO.C,R16*
X131557142Y-111152380D02*
X131223809Y-110676190D01*
X130985714Y-111152380D02*
X130985714Y-110152380D01*
X131366666Y-110152380D01*
X131461904Y-110200000D01*
X131509523Y-110247619D01*
X131557142Y-110342857D01*
X131557142Y-110485714D01*
X131509523Y-110580952D01*
X131461904Y-110628571D01*
X131366666Y-110676190D01*
X130985714Y-110676190D01*
X132509523Y-111152380D02*
X131938095Y-111152380D01*
X132223809Y-111152380D02*
X132223809Y-110152380D01*
X132128571Y-110295238D01*
X132033333Y-110390476D01*
X131938095Y-110438095D01*
X133366666Y-110152380D02*
X133176190Y-110152380D01*
X133080952Y-110200000D01*
X133033333Y-110247619D01*
X132938095Y-110390476D01*
X132890476Y-110580952D01*
X132890476Y-110961904D01*
X132938095Y-111057142D01*
X132985714Y-111104761D01*
X133080952Y-111152380D01*
X133271428Y-111152380D01*
X133366666Y-111104761D01*
X133414285Y-111057142D01*
X133461904Y-110961904D01*
X133461904Y-110723809D01*
X133414285Y-110628571D01*
X133366666Y-110580952D01*
X133271428Y-110533333D01*
X133080952Y-110533333D01*
X132985714Y-110580952D01*
X132938095Y-110628571D01*
X132890476Y-110723809D01*
G04 #@! TO.C,R17*
X125557142Y-127502380D02*
X125223809Y-127026190D01*
X124985714Y-127502380D02*
X124985714Y-126502380D01*
X125366666Y-126502380D01*
X125461904Y-126550000D01*
X125509523Y-126597619D01*
X125557142Y-126692857D01*
X125557142Y-126835714D01*
X125509523Y-126930952D01*
X125461904Y-126978571D01*
X125366666Y-127026190D01*
X124985714Y-127026190D01*
X126509523Y-127502380D02*
X125938095Y-127502380D01*
X126223809Y-127502380D02*
X126223809Y-126502380D01*
X126128571Y-126645238D01*
X126033333Y-126740476D01*
X125938095Y-126788095D01*
X126842857Y-126502380D02*
X127509523Y-126502380D01*
X127080952Y-127502380D01*
G04 #@! TO.C,R15*
X129057142Y-125752380D02*
X128723809Y-125276190D01*
X128485714Y-125752380D02*
X128485714Y-124752380D01*
X128866666Y-124752380D01*
X128961904Y-124800000D01*
X129009523Y-124847619D01*
X129057142Y-124942857D01*
X129057142Y-125085714D01*
X129009523Y-125180952D01*
X128961904Y-125228571D01*
X128866666Y-125276190D01*
X128485714Y-125276190D01*
X130009523Y-125752380D02*
X129438095Y-125752380D01*
X129723809Y-125752380D02*
X129723809Y-124752380D01*
X129628571Y-124895238D01*
X129533333Y-124990476D01*
X129438095Y-125038095D01*
X130914285Y-124752380D02*
X130438095Y-124752380D01*
X130390476Y-125228571D01*
X130438095Y-125180952D01*
X130533333Y-125133333D01*
X130771428Y-125133333D01*
X130866666Y-125180952D01*
X130914285Y-125228571D01*
X130961904Y-125323809D01*
X130961904Y-125561904D01*
X130914285Y-125657142D01*
X130866666Y-125704761D01*
X130771428Y-125752380D01*
X130533333Y-125752380D01*
X130438095Y-125704761D01*
X130390476Y-125657142D01*
G04 #@! TO.C,R2*
X118233333Y-107152380D02*
X117900000Y-106676190D01*
X117661904Y-107152380D02*
X117661904Y-106152380D01*
X118042857Y-106152380D01*
X118138095Y-106200000D01*
X118185714Y-106247619D01*
X118233333Y-106342857D01*
X118233333Y-106485714D01*
X118185714Y-106580952D01*
X118138095Y-106628571D01*
X118042857Y-106676190D01*
X117661904Y-106676190D01*
X118614285Y-106247619D02*
X118661904Y-106200000D01*
X118757142Y-106152380D01*
X118995238Y-106152380D01*
X119090476Y-106200000D01*
X119138095Y-106247619D01*
X119185714Y-106342857D01*
X119185714Y-106438095D01*
X119138095Y-106580952D01*
X118566666Y-107152380D01*
X119185714Y-107152380D01*
G04 #@! TO.C,R3*
X118133333Y-108952380D02*
X117800000Y-108476190D01*
X117561904Y-108952380D02*
X117561904Y-107952380D01*
X117942857Y-107952380D01*
X118038095Y-108000000D01*
X118085714Y-108047619D01*
X118133333Y-108142857D01*
X118133333Y-108285714D01*
X118085714Y-108380952D01*
X118038095Y-108428571D01*
X117942857Y-108476190D01*
X117561904Y-108476190D01*
X118466666Y-107952380D02*
X119085714Y-107952380D01*
X118752380Y-108333333D01*
X118895238Y-108333333D01*
X118990476Y-108380952D01*
X119038095Y-108428571D01*
X119085714Y-108523809D01*
X119085714Y-108761904D01*
X119038095Y-108857142D01*
X118990476Y-108904761D01*
X118895238Y-108952380D01*
X118609523Y-108952380D01*
X118514285Y-108904761D01*
X118466666Y-108857142D01*
G04 #@! TO.C,R6*
X116633333Y-118752380D02*
X116300000Y-118276190D01*
X116061904Y-118752380D02*
X116061904Y-117752380D01*
X116442857Y-117752380D01*
X116538095Y-117800000D01*
X116585714Y-117847619D01*
X116633333Y-117942857D01*
X116633333Y-118085714D01*
X116585714Y-118180952D01*
X116538095Y-118228571D01*
X116442857Y-118276190D01*
X116061904Y-118276190D01*
X117490476Y-117752380D02*
X117300000Y-117752380D01*
X117204761Y-117800000D01*
X117157142Y-117847619D01*
X117061904Y-117990476D01*
X117014285Y-118180952D01*
X117014285Y-118561904D01*
X117061904Y-118657142D01*
X117109523Y-118704761D01*
X117204761Y-118752380D01*
X117395238Y-118752380D01*
X117490476Y-118704761D01*
X117538095Y-118657142D01*
X117585714Y-118561904D01*
X117585714Y-118323809D01*
X117538095Y-118228571D01*
X117490476Y-118180952D01*
X117395238Y-118133333D01*
X117204761Y-118133333D01*
X117109523Y-118180952D01*
X117061904Y-118228571D01*
X117014285Y-118323809D01*
G04 #@! TO.C,R10*
X118457142Y-123352380D02*
X118123809Y-122876190D01*
X117885714Y-123352380D02*
X117885714Y-122352380D01*
X118266666Y-122352380D01*
X118361904Y-122400000D01*
X118409523Y-122447619D01*
X118457142Y-122542857D01*
X118457142Y-122685714D01*
X118409523Y-122780952D01*
X118361904Y-122828571D01*
X118266666Y-122876190D01*
X117885714Y-122876190D01*
X119409523Y-123352380D02*
X118838095Y-123352380D01*
X119123809Y-123352380D02*
X119123809Y-122352380D01*
X119028571Y-122495238D01*
X118933333Y-122590476D01*
X118838095Y-122638095D01*
X120028571Y-122352380D02*
X120123809Y-122352380D01*
X120219047Y-122400000D01*
X120266666Y-122447619D01*
X120314285Y-122542857D01*
X120361904Y-122733333D01*
X120361904Y-122971428D01*
X120314285Y-123161904D01*
X120266666Y-123257142D01*
X120219047Y-123304761D01*
X120123809Y-123352380D01*
X120028571Y-123352380D01*
X119933333Y-123304761D01*
X119885714Y-123257142D01*
X119838095Y-123161904D01*
X119790476Y-122971428D01*
X119790476Y-122733333D01*
X119838095Y-122542857D01*
X119885714Y-122447619D01*
X119933333Y-122400000D01*
X120028571Y-122352380D01*
G04 #@! TO.C,R5*
X116733333Y-117252380D02*
X116400000Y-116776190D01*
X116161904Y-117252380D02*
X116161904Y-116252380D01*
X116542857Y-116252380D01*
X116638095Y-116300000D01*
X116685714Y-116347619D01*
X116733333Y-116442857D01*
X116733333Y-116585714D01*
X116685714Y-116680952D01*
X116638095Y-116728571D01*
X116542857Y-116776190D01*
X116161904Y-116776190D01*
X117638095Y-116252380D02*
X117161904Y-116252380D01*
X117114285Y-116728571D01*
X117161904Y-116680952D01*
X117257142Y-116633333D01*
X117495238Y-116633333D01*
X117590476Y-116680952D01*
X117638095Y-116728571D01*
X117685714Y-116823809D01*
X117685714Y-117061904D01*
X117638095Y-117157142D01*
X117590476Y-117204761D01*
X117495238Y-117252380D01*
X117257142Y-117252380D01*
X117161904Y-117204761D01*
X117114285Y-117157142D01*
G04 #@! TO.C,SW1*
X140116666Y-109642761D02*
X140259523Y-109690380D01*
X140497619Y-109690380D01*
X140592857Y-109642761D01*
X140640476Y-109595142D01*
X140688095Y-109499904D01*
X140688095Y-109404666D01*
X140640476Y-109309428D01*
X140592857Y-109261809D01*
X140497619Y-109214190D01*
X140307142Y-109166571D01*
X140211904Y-109118952D01*
X140164285Y-109071333D01*
X140116666Y-108976095D01*
X140116666Y-108880857D01*
X140164285Y-108785619D01*
X140211904Y-108738000D01*
X140307142Y-108690380D01*
X140545238Y-108690380D01*
X140688095Y-108738000D01*
X141021428Y-108690380D02*
X141259523Y-109690380D01*
X141450000Y-108976095D01*
X141640476Y-109690380D01*
X141878571Y-108690380D01*
X142783333Y-109690380D02*
X142211904Y-109690380D01*
X142497619Y-109690380D02*
X142497619Y-108690380D01*
X142402380Y-108833238D01*
X142307142Y-108928476D01*
X142211904Y-108976095D01*
G04 #@! TO.C,J2*
X105952380Y-125233333D02*
X106666666Y-125233333D01*
X106809523Y-125280952D01*
X106904761Y-125376190D01*
X106952380Y-125519047D01*
X106952380Y-125614285D01*
X106047619Y-124804761D02*
X106000000Y-124757142D01*
X105952380Y-124661904D01*
X105952380Y-124423809D01*
X106000000Y-124328571D01*
X106047619Y-124280952D01*
X106142857Y-124233333D01*
X106238095Y-124233333D01*
X106380952Y-124280952D01*
X106952380Y-124852380D01*
X106952380Y-124233333D01*
G04 #@! TO.C,J1*
X135602380Y-132543333D02*
X136316666Y-132543333D01*
X136459523Y-132590952D01*
X136554761Y-132686190D01*
X136602380Y-132829047D01*
X136602380Y-132924285D01*
X136602380Y-131543333D02*
X136602380Y-132114761D01*
X136602380Y-131829047D02*
X135602380Y-131829047D01*
X135745238Y-131924285D01*
X135840476Y-132019523D01*
X135888095Y-132114761D01*
G04 #@! TO.C,U3*
X119538095Y-124852380D02*
X119538095Y-125661904D01*
X119585714Y-125757142D01*
X119633333Y-125804761D01*
X119728571Y-125852380D01*
X119919047Y-125852380D01*
X120014285Y-125804761D01*
X120061904Y-125757142D01*
X120109523Y-125661904D01*
X120109523Y-124852380D01*
X120490476Y-124852380D02*
X121109523Y-124852380D01*
X120776190Y-125233333D01*
X120919047Y-125233333D01*
X121014285Y-125280952D01*
X121061904Y-125328571D01*
X121109523Y-125423809D01*
X121109523Y-125661904D01*
X121061904Y-125757142D01*
X121014285Y-125804761D01*
X120919047Y-125852380D01*
X120633333Y-125852380D01*
X120538095Y-125804761D01*
X120490476Y-125757142D01*
G04 #@! TO.C,Q1*
X108386761Y-132877619D02*
X108291523Y-132830000D01*
X108196285Y-132734761D01*
X108053428Y-132591904D01*
X107958190Y-132544285D01*
X107862952Y-132544285D01*
X107910571Y-132782380D02*
X107815333Y-132734761D01*
X107720095Y-132639523D01*
X107672476Y-132449047D01*
X107672476Y-132115714D01*
X107720095Y-131925238D01*
X107815333Y-131830000D01*
X107910571Y-131782380D01*
X108101047Y-131782380D01*
X108196285Y-131830000D01*
X108291523Y-131925238D01*
X108339142Y-132115714D01*
X108339142Y-132449047D01*
X108291523Y-132639523D01*
X108196285Y-132734761D01*
X108101047Y-132782380D01*
X107910571Y-132782380D01*
X109291523Y-132782380D02*
X108720095Y-132782380D01*
X109005809Y-132782380D02*
X109005809Y-131782380D01*
X108910571Y-131925238D01*
X108815333Y-132020476D01*
X108720095Y-132068095D01*
G04 #@! TO.C,U1*
X125338095Y-111352380D02*
X125338095Y-112161904D01*
X125385714Y-112257142D01*
X125433333Y-112304761D01*
X125528571Y-112352380D01*
X125719047Y-112352380D01*
X125814285Y-112304761D01*
X125861904Y-112257142D01*
X125909523Y-112161904D01*
X125909523Y-111352380D01*
X126909523Y-112352380D02*
X126338095Y-112352380D01*
X126623809Y-112352380D02*
X126623809Y-111352380D01*
X126528571Y-111495238D01*
X126433333Y-111590476D01*
X126338095Y-111638095D01*
G04 #@! TD*
M02*
