G04 #@! TF.GenerationSoftware,KiCad,Pcbnew,5.0.0*
G04 #@! TF.CreationDate,2018-08-08T08:53:58-04:00*
G04 #@! TF.ProjectId,telegraph,74656C6567726170682E6B696361645F,rev?*
G04 #@! TF.SameCoordinates,Original*
G04 #@! TF.FileFunction,Paste,Top*
G04 #@! TF.FilePolarity,Positive*
%FSLAX46Y46*%
G04 Gerber Fmt 4.6, Leading zero omitted, Abs format (unit mm)*
G04 Created by KiCad (PCBNEW 5.0.0) date Wed Aug  8 08:53:58 2018*
%MOMM*%
%LPD*%
G01*
G04 APERTURE LIST*
%ADD10R,0.750000X1.200000*%
%ADD11R,1.250000X1.500000*%
%ADD12R,0.400000X0.600000*%
%ADD13R,0.500000X0.600000*%
%ADD14R,0.600000X0.500000*%
%ADD15R,1.200000X0.750000*%
%ADD16R,2.000000X1.600000*%
%ADD17R,1.600000X2.000000*%
%ADD18R,2.200000X1.825000*%
%ADD19R,1.200000X0.900000*%
%ADD20R,0.900000X1.200000*%
%ADD21R,0.600000X0.400000*%
%ADD22R,0.650000X1.500000*%
%ADD23R,3.600000X2.700000*%
%ADD24R,0.800000X0.900000*%
%ADD25R,0.240000X0.600000*%
%ADD26R,0.600000X0.240000*%
%ADD27R,3.050000X2.050000*%
%ADD28R,0.325000X0.740000*%
G04 APERTURE END LIST*
D10*
G04 #@! TO.C,C7*
X129700000Y-109850000D03*
X129700000Y-107950000D03*
G04 #@! TD*
D11*
G04 #@! TO.C,C17*
X119900000Y-114650000D03*
X119900000Y-112150000D03*
G04 #@! TD*
D12*
G04 #@! TO.C,R18*
X133450000Y-127900000D03*
X132550000Y-127900000D03*
G04 #@! TD*
G04 #@! TO.C,R19*
X132550000Y-126900000D03*
X133450000Y-126900000D03*
G04 #@! TD*
D13*
G04 #@! TO.C,C3*
X136360000Y-122854000D03*
X136360000Y-121754000D03*
G04 #@! TD*
G04 #@! TO.C,C4*
X134328000Y-121754000D03*
X134328000Y-122854000D03*
G04 #@! TD*
D14*
G04 #@! TO.C,C12*
X123194000Y-125352000D03*
X122094000Y-125352000D03*
G04 #@! TD*
D15*
G04 #@! TO.C,C11*
X119700000Y-135818000D03*
X121600000Y-135818000D03*
G04 #@! TD*
D16*
G04 #@! TO.C,C10*
X116450000Y-126318000D03*
X112450000Y-126318000D03*
G04 #@! TD*
D17*
G04 #@! TO.C,C6*
X130950000Y-113068000D03*
X130950000Y-117068000D03*
G04 #@! TD*
G04 #@! TO.C,C5*
X133450000Y-117068000D03*
X133450000Y-113068000D03*
G04 #@! TD*
D16*
G04 #@! TO.C,C2*
X131248000Y-119764000D03*
X127248000Y-119764000D03*
G04 #@! TD*
G04 #@! TO.C,C1*
X131248000Y-122304000D03*
X127248000Y-122304000D03*
G04 #@! TD*
G04 #@! TO.C,C15*
X132700000Y-108818000D03*
X136700000Y-108818000D03*
G04 #@! TD*
D18*
G04 #@! TO.C,L1*
X126708000Y-135275500D03*
X126708000Y-132700500D03*
G04 #@! TD*
D19*
G04 #@! TO.C,D3*
X123700000Y-120818000D03*
X121500000Y-120818000D03*
G04 #@! TD*
D20*
G04 #@! TO.C,D2*
X124500000Y-106368000D03*
X124500000Y-108568000D03*
G04 #@! TD*
G04 #@! TO.C,D1*
X126250000Y-108668000D03*
X126250000Y-106468000D03*
G04 #@! TD*
D21*
G04 #@! TO.C,R7*
X129200000Y-112768000D03*
X129200000Y-111868000D03*
G04 #@! TD*
G04 #@! TO.C,R13*
X117450000Y-130268000D03*
X117450000Y-129368000D03*
G04 #@! TD*
D12*
G04 #@! TO.C,R14*
X125750000Y-129924000D03*
X126650000Y-129924000D03*
G04 #@! TD*
G04 #@! TO.C,R16*
X134250000Y-110818000D03*
X135150000Y-110818000D03*
G04 #@! TD*
G04 #@! TO.C,R17*
X125750000Y-128400000D03*
X126650000Y-128400000D03*
G04 #@! TD*
D19*
G04 #@! TO.C,R15*
X125100000Y-125352000D03*
X127300000Y-125352000D03*
G04 #@! TD*
G04 #@! TO.C,R2*
X120500000Y-106768000D03*
X122700000Y-106768000D03*
G04 #@! TD*
G04 #@! TO.C,R3*
X122550000Y-108518000D03*
X120350000Y-108518000D03*
G04 #@! TD*
G04 #@! TO.C,R6*
X122220000Y-118240000D03*
X120020000Y-118240000D03*
G04 #@! TD*
G04 #@! TO.C,R10*
X123650000Y-122818000D03*
X121450000Y-122818000D03*
G04 #@! TD*
G04 #@! TO.C,R5*
X120104000Y-116716000D03*
X122304000Y-116716000D03*
G04 #@! TD*
D22*
G04 #@! TO.C,U3*
X119215000Y-132624000D03*
X120485000Y-132624000D03*
X121755000Y-132624000D03*
X123025000Y-132624000D03*
X123025000Y-127224000D03*
X121755000Y-127224000D03*
X120485000Y-127224000D03*
X119215000Y-127224000D03*
D23*
X121120000Y-129924000D03*
G04 #@! TD*
D24*
G04 #@! TO.C,Q1*
X108532000Y-128930000D03*
X109182000Y-130530000D03*
X107882000Y-130530000D03*
G04 #@! TD*
D25*
G04 #@! TO.C,U1*
X124450000Y-116718000D03*
X124950000Y-116718000D03*
X125450000Y-116718000D03*
X125950000Y-116718000D03*
X126450000Y-116718000D03*
X126950000Y-116718000D03*
X127450000Y-116718000D03*
X127950000Y-116718000D03*
D26*
X128350000Y-115818000D03*
X128350000Y-115318000D03*
X128350000Y-114818000D03*
X128350000Y-114318000D03*
D25*
X127950000Y-113418000D03*
X127450000Y-113418000D03*
X126950000Y-113418000D03*
X126450000Y-113418000D03*
X125950000Y-113418000D03*
X125450000Y-113418000D03*
X124950000Y-113418000D03*
X124450000Y-113418000D03*
D26*
X124050000Y-114318000D03*
X124050000Y-114818000D03*
X124050000Y-115318000D03*
X124050000Y-115818000D03*
D27*
X126200000Y-115068000D03*
D28*
X127887500Y-115068000D03*
X124512500Y-115068000D03*
G04 #@! TD*
M02*
