%FSLAX45Y45*%
G04 Gerber Fmt 4.5, Leading zero omitted, Abs format (unit mm)*
G04 Created by KiCad (PCBNEW 5.0.0) date Tue Aug 14 07:54:24 2018*
%MOMM*%
%LPD*%
G01*
G04 APERTURE LIST*
%ADD10C,0.150000*%
%ADD11C,0.200000*%
%ADD12C,0.300000*%
G04 APERTURE END LIST*
D10*
X10100000Y-13800000D02*
X10100000Y-10000000D01*
X14900000Y-13800000D02*
X10100000Y-13800000D01*
X14900000Y-10000000D02*
X14900000Y-13800000D01*
X10100000Y-10000000D02*
X14900000Y-10000000D01*
D11*
X10828490Y-13340290D02*
X10861510Y-13373310D01*
X10861510Y-13340290D02*
X10828490Y-13373310D01*
X11653490Y-13340290D02*
X11686510Y-13373310D01*
X11686510Y-13340290D02*
X11653490Y-13373310D01*
X11728490Y-13040290D02*
X11761510Y-13073310D01*
X11761510Y-13040290D02*
X11728490Y-13073310D01*
X11803490Y-11565290D02*
X11836510Y-11598310D01*
X11836510Y-11565290D02*
X11803490Y-11598310D01*
X11803490Y-11696290D02*
X11836510Y-11729310D01*
X11836510Y-11696290D02*
X11803490Y-11729310D01*
X11803490Y-11816290D02*
X11836510Y-11849310D01*
X11836510Y-11816290D02*
X11803490Y-11849310D01*
X12003490Y-13415290D02*
X12036510Y-13448310D01*
X12036510Y-13415290D02*
X12003490Y-13448310D01*
X12053490Y-13473490D02*
X12086510Y-13506510D01*
X12086510Y-13473490D02*
X12053490Y-13506510D01*
X12095490Y-12975890D02*
X12128510Y-13008910D01*
X12128510Y-12975890D02*
X12095490Y-13008910D01*
X12118490Y-10735290D02*
X12151510Y-10768310D01*
X12151510Y-10735290D02*
X12118490Y-10768310D01*
X12123490Y-10963490D02*
X12156510Y-10996510D01*
X12156510Y-10963490D02*
X12123490Y-10996510D01*
X12123490Y-11203490D02*
X12156510Y-11236510D01*
X12156510Y-11203490D02*
X12123490Y-11236510D01*
X12128490Y-11540290D02*
X12161510Y-11573310D01*
X12161510Y-11540290D02*
X12128490Y-11573310D01*
X12203490Y-11283490D02*
X12236510Y-11316510D01*
X12236510Y-11283490D02*
X12203490Y-11316510D01*
X12251090Y-12975890D02*
X12284110Y-13008910D01*
X12284110Y-12975890D02*
X12251090Y-13008910D01*
X12428490Y-12715290D02*
X12461510Y-12748310D01*
X12461510Y-12715290D02*
X12428490Y-12748310D01*
X12433490Y-11242712D02*
X12466510Y-11275732D01*
X12466510Y-11242712D02*
X12433490Y-11275732D01*
X12453490Y-12265290D02*
X12486510Y-12298310D01*
X12486510Y-12265290D02*
X12453490Y-12298310D01*
X12503490Y-11840290D02*
X12536510Y-11873310D01*
X12536510Y-11840290D02*
X12503490Y-11873310D01*
X12568718Y-11778014D02*
X12601738Y-11811034D01*
X12601738Y-11778014D02*
X12568718Y-11811034D01*
X12603490Y-11490290D02*
X12636510Y-11523310D01*
X12636510Y-11490290D02*
X12603490Y-11523310D01*
X12608490Y-10850290D02*
X12641510Y-10883310D01*
X12641510Y-10850290D02*
X12608490Y-10883310D01*
X12703490Y-11790290D02*
X12736510Y-11823310D01*
X12736510Y-11790290D02*
X12703490Y-11823310D01*
X12728490Y-12390290D02*
X12761510Y-12423310D01*
X12761510Y-12390290D02*
X12728490Y-12423310D01*
X12778490Y-11830360D02*
X12811510Y-11863380D01*
X12811510Y-11830360D02*
X12778490Y-11863380D01*
X12778490Y-13140290D02*
X12811510Y-13173310D01*
X12811510Y-13140290D02*
X12778490Y-13173310D01*
X12803490Y-10765290D02*
X12836510Y-10798310D01*
X12836510Y-10765290D02*
X12803490Y-10798310D01*
X12803490Y-11165290D02*
X12836510Y-11198310D01*
X12836510Y-11165290D02*
X12803490Y-11198310D01*
X12840021Y-11675759D02*
X12873041Y-11708779D01*
X12873041Y-11675759D02*
X12840021Y-11708779D01*
X12903490Y-11740290D02*
X12936510Y-11773310D01*
X12936510Y-11740290D02*
X12903490Y-11773310D01*
X12928490Y-11365290D02*
X12961510Y-11398310D01*
X12961510Y-11365290D02*
X12928490Y-11398310D01*
X12953490Y-10965290D02*
X12986510Y-10998310D01*
X12986510Y-10965290D02*
X12953490Y-10998310D01*
X13003490Y-11140290D02*
X13036510Y-11173310D01*
X13036510Y-11140290D02*
X13003490Y-11173310D01*
X13078490Y-11465290D02*
X13111510Y-11498310D01*
X13111510Y-11465290D02*
X13078490Y-11498310D01*
X13096383Y-11116978D02*
X13129403Y-11149998D01*
X13129403Y-11116978D02*
X13096383Y-11149998D01*
X13178490Y-12415290D02*
X13211510Y-12448310D01*
X13211510Y-12415290D02*
X13178490Y-12448310D01*
X13178490Y-12506413D02*
X13211510Y-12539433D01*
X13211510Y-12506413D02*
X13178490Y-12539433D01*
X13183490Y-12895490D02*
X13216510Y-12928510D01*
X13216510Y-12895490D02*
X13183490Y-12928510D01*
X13303490Y-12040290D02*
X13336510Y-12073310D01*
X13336510Y-12040290D02*
X13303490Y-12073310D01*
X13503490Y-11790290D02*
X13536510Y-11823310D01*
X13536510Y-11790290D02*
X13503490Y-11823310D01*
X13903490Y-11365290D02*
X13936510Y-11398310D01*
X13936510Y-11365290D02*
X13903490Y-11398310D01*
X13605000Y-12031800D02*
G75*
G03X13605000Y-12031800I-25000J0D01*
G01*
X13795000Y-12031800D02*
G75*
G03X13795000Y-12031800I-25000J0D01*
G01*
X10853200Y-12313400D02*
X10853200Y-12413400D01*
X10803200Y-12363400D02*
X10903200Y-12363400D01*
X10853200Y-12567400D02*
X10853200Y-12667400D01*
X10803200Y-12617400D02*
X10903200Y-12617400D01*
X14145000Y-11106800D02*
X14145000Y-11206800D01*
X14095000Y-11156800D02*
X14195000Y-11156800D01*
X14145000Y-11360800D02*
X14145000Y-11460800D01*
X14095000Y-11410800D02*
X14195000Y-11410800D01*
X13128000Y-13044000D02*
X13128000Y-13144000D01*
X13078000Y-13094000D02*
X13178000Y-13094000D01*
X13128000Y-13298000D02*
X13128000Y-13398000D01*
X13078000Y-13348000D02*
X13178000Y-13348000D01*
X13382000Y-13044000D02*
X13382000Y-13144000D01*
X13332000Y-13094000D02*
X13432000Y-13094000D01*
X13382000Y-13298000D02*
X13382000Y-13398000D01*
X13332000Y-13348000D02*
X13432000Y-13348000D01*
X10947029Y-11058829D02*
X10947029Y-10754771D01*
X10642971Y-10754771D01*
X10642971Y-11058829D01*
X10947029Y-11058829D01*
X14372029Y-13208829D02*
X14372029Y-12904771D01*
X14067971Y-12904771D01*
X14067971Y-13208829D01*
X14372029Y-13208829D01*
D12*
X10378928Y-14273214D02*
X10378928Y-13973214D01*
X10450357Y-13973214D01*
X10493214Y-13987500D01*
X10521786Y-14016071D01*
X10536071Y-14044643D01*
X10550357Y-14101786D01*
X10550357Y-14144643D01*
X10536071Y-14201786D01*
X10521786Y-14230357D01*
X10493214Y-14258929D01*
X10450357Y-14273214D01*
X10378928Y-14273214D01*
X10678928Y-14273214D02*
X10678928Y-14073214D01*
X10678928Y-14130357D02*
X10693214Y-14101786D01*
X10707500Y-14087500D01*
X10736071Y-14073214D01*
X10764643Y-14073214D01*
X10864643Y-14273214D02*
X10864643Y-14073214D01*
X10864643Y-13973214D02*
X10850357Y-13987500D01*
X10864643Y-14001786D01*
X10878928Y-13987500D01*
X10864643Y-13973214D01*
X10864643Y-14001786D01*
X11050357Y-14273214D02*
X11021786Y-14258929D01*
X11007500Y-14230357D01*
X11007500Y-13973214D01*
X11207500Y-14273214D02*
X11178928Y-14258929D01*
X11164643Y-14230357D01*
X11164643Y-13973214D01*
X11550357Y-14273214D02*
X11550357Y-13973214D01*
X11650357Y-14187500D01*
X11750357Y-13973214D01*
X11750357Y-14273214D01*
X12021786Y-14273214D02*
X12021786Y-14116071D01*
X12007500Y-14087500D01*
X11978928Y-14073214D01*
X11921786Y-14073214D01*
X11893214Y-14087500D01*
X12021786Y-14258929D02*
X11993214Y-14273214D01*
X11921786Y-14273214D01*
X11893214Y-14258929D01*
X11878928Y-14230357D01*
X11878928Y-14201786D01*
X11893214Y-14173214D01*
X11921786Y-14158929D01*
X11993214Y-14158929D01*
X12021786Y-14144643D01*
X12164643Y-14073214D02*
X12164643Y-14373214D01*
X12164643Y-14087500D02*
X12193214Y-14073214D01*
X12250357Y-14073214D01*
X12278928Y-14087500D01*
X12293214Y-14101786D01*
X12307500Y-14130357D01*
X12307500Y-14216071D01*
X12293214Y-14244643D01*
X12278928Y-14258929D01*
X12250357Y-14273214D01*
X12193214Y-14273214D01*
X12164643Y-14258929D01*
X12436071Y-14244643D02*
X12450357Y-14258929D01*
X12436071Y-14273214D01*
X12421786Y-14258929D01*
X12436071Y-14244643D01*
X12436071Y-14273214D01*
X12436071Y-14087500D02*
X12450357Y-14101786D01*
X12436071Y-14116071D01*
X12421786Y-14101786D01*
X12436071Y-14087500D01*
X12436071Y-14116071D01*
X10059480Y-14750990D02*
X10092500Y-14784010D01*
X10092500Y-14750990D02*
X10059480Y-14784010D01*
X10436071Y-14603214D02*
X10464643Y-14603214D01*
X10493214Y-14617500D01*
X10507500Y-14631786D01*
X10521786Y-14660357D01*
X10536071Y-14717500D01*
X10536071Y-14788929D01*
X10521786Y-14846071D01*
X10507500Y-14874643D01*
X10493214Y-14888929D01*
X10464643Y-14903214D01*
X10436071Y-14903214D01*
X10407500Y-14888929D01*
X10393214Y-14874643D01*
X10378928Y-14846071D01*
X10364643Y-14788929D01*
X10364643Y-14717500D01*
X10378928Y-14660357D01*
X10393214Y-14631786D01*
X10407500Y-14617500D01*
X10436071Y-14603214D01*
X10664643Y-14874643D02*
X10678928Y-14888929D01*
X10664643Y-14903214D01*
X10650357Y-14888929D01*
X10664643Y-14874643D01*
X10664643Y-14903214D01*
X10778928Y-14603214D02*
X10964643Y-14603214D01*
X10864643Y-14717500D01*
X10907500Y-14717500D01*
X10936071Y-14731786D01*
X10950357Y-14746071D01*
X10964643Y-14774643D01*
X10964643Y-14846071D01*
X10950357Y-14874643D01*
X10936071Y-14888929D01*
X10907500Y-14903214D01*
X10821786Y-14903214D01*
X10793214Y-14888929D01*
X10778928Y-14874643D01*
X11064643Y-14603214D02*
X11250357Y-14603214D01*
X11150357Y-14717500D01*
X11193214Y-14717500D01*
X11221786Y-14731786D01*
X11236071Y-14746071D01*
X11250357Y-14774643D01*
X11250357Y-14846071D01*
X11236071Y-14874643D01*
X11221786Y-14888929D01*
X11193214Y-14903214D01*
X11107500Y-14903214D01*
X11078928Y-14888929D01*
X11064643Y-14874643D01*
X11378928Y-14903214D02*
X11378928Y-14703214D01*
X11378928Y-14731786D02*
X11393214Y-14717500D01*
X11421786Y-14703214D01*
X11464643Y-14703214D01*
X11493214Y-14717500D01*
X11507500Y-14746071D01*
X11507500Y-14903214D01*
X11507500Y-14746071D02*
X11521786Y-14717500D01*
X11550357Y-14703214D01*
X11593214Y-14703214D01*
X11621786Y-14717500D01*
X11636071Y-14746071D01*
X11636071Y-14903214D01*
X11778928Y-14903214D02*
X11778928Y-14703214D01*
X11778928Y-14731786D02*
X11793214Y-14717500D01*
X11821786Y-14703214D01*
X11864643Y-14703214D01*
X11893214Y-14717500D01*
X11907500Y-14746071D01*
X11907500Y-14903214D01*
X11907500Y-14746071D02*
X11921786Y-14717500D01*
X11950357Y-14703214D01*
X11993214Y-14703214D01*
X12021786Y-14717500D01*
X12036071Y-14746071D01*
X12036071Y-14903214D01*
X12621786Y-14588929D02*
X12364643Y-14974643D01*
X13007500Y-14603214D02*
X13036071Y-14603214D01*
X13064643Y-14617500D01*
X13078928Y-14631786D01*
X13093214Y-14660357D01*
X13107500Y-14717500D01*
X13107500Y-14788929D01*
X13093214Y-14846071D01*
X13078928Y-14874643D01*
X13064643Y-14888929D01*
X13036071Y-14903214D01*
X13007500Y-14903214D01*
X12978928Y-14888929D01*
X12964643Y-14874643D01*
X12950357Y-14846071D01*
X12936071Y-14788929D01*
X12936071Y-14717500D01*
X12950357Y-14660357D01*
X12964643Y-14631786D01*
X12978928Y-14617500D01*
X13007500Y-14603214D01*
X13236071Y-14874643D02*
X13250357Y-14888929D01*
X13236071Y-14903214D01*
X13221786Y-14888929D01*
X13236071Y-14874643D01*
X13236071Y-14903214D01*
X13436071Y-14603214D02*
X13464643Y-14603214D01*
X13493214Y-14617500D01*
X13507500Y-14631786D01*
X13521786Y-14660357D01*
X13536071Y-14717500D01*
X13536071Y-14788929D01*
X13521786Y-14846071D01*
X13507500Y-14874643D01*
X13493214Y-14888929D01*
X13464643Y-14903214D01*
X13436071Y-14903214D01*
X13407500Y-14888929D01*
X13393214Y-14874643D01*
X13378928Y-14846071D01*
X13364643Y-14788929D01*
X13364643Y-14717500D01*
X13378928Y-14660357D01*
X13393214Y-14631786D01*
X13407500Y-14617500D01*
X13436071Y-14603214D01*
X13821786Y-14903214D02*
X13650357Y-14903214D01*
X13736071Y-14903214D02*
X13736071Y-14603214D01*
X13707500Y-14646071D01*
X13678928Y-14674643D01*
X13650357Y-14688929D01*
X13921786Y-14603214D02*
X14107500Y-14603214D01*
X14007500Y-14717500D01*
X14050357Y-14717500D01*
X14078928Y-14731786D01*
X14093214Y-14746071D01*
X14107500Y-14774643D01*
X14107500Y-14846071D01*
X14093214Y-14874643D01*
X14078928Y-14888929D01*
X14050357Y-14903214D01*
X13964643Y-14903214D01*
X13936071Y-14888929D01*
X13921786Y-14874643D01*
X14221786Y-14603214D02*
X14221786Y-14660357D01*
X14336071Y-14603214D02*
X14336071Y-14660357D01*
X14778928Y-15017500D02*
X14764643Y-15003214D01*
X14736071Y-14960357D01*
X14721786Y-14931786D01*
X14707500Y-14888929D01*
X14693214Y-14817500D01*
X14693214Y-14760357D01*
X14707500Y-14688929D01*
X14721786Y-14646071D01*
X14736071Y-14617500D01*
X14764643Y-14574643D01*
X14778928Y-14560357D01*
X15021786Y-14703214D02*
X15021786Y-14903214D01*
X14950357Y-14588929D02*
X14878928Y-14803214D01*
X15064643Y-14803214D01*
X15336071Y-14903214D02*
X15164643Y-14903214D01*
X15250357Y-14903214D02*
X15250357Y-14603214D01*
X15221786Y-14646071D01*
X15193214Y-14674643D01*
X15164643Y-14688929D01*
X15693214Y-14903214D02*
X15693214Y-14603214D01*
X15821786Y-14903214D02*
X15821786Y-14746071D01*
X15807500Y-14717500D01*
X15778928Y-14703214D01*
X15736071Y-14703214D01*
X15707500Y-14717500D01*
X15693214Y-14731786D01*
X16007500Y-14903214D02*
X15978928Y-14888929D01*
X15964643Y-14874643D01*
X15950357Y-14846071D01*
X15950357Y-14760357D01*
X15964643Y-14731786D01*
X15978928Y-14717500D01*
X16007500Y-14703214D01*
X16050357Y-14703214D01*
X16078928Y-14717500D01*
X16093214Y-14731786D01*
X16107500Y-14760357D01*
X16107500Y-14846071D01*
X16093214Y-14874643D01*
X16078928Y-14888929D01*
X16050357Y-14903214D01*
X16007500Y-14903214D01*
X16278928Y-14903214D02*
X16250357Y-14888929D01*
X16236071Y-14860357D01*
X16236071Y-14603214D01*
X16507500Y-14888929D02*
X16478928Y-14903214D01*
X16421786Y-14903214D01*
X16393214Y-14888929D01*
X16378928Y-14860357D01*
X16378928Y-14746071D01*
X16393214Y-14717500D01*
X16421786Y-14703214D01*
X16478928Y-14703214D01*
X16507500Y-14717500D01*
X16521786Y-14746071D01*
X16521786Y-14774643D01*
X16378928Y-14803214D01*
X16636071Y-14888929D02*
X16664643Y-14903214D01*
X16721786Y-14903214D01*
X16750357Y-14888929D01*
X16764643Y-14860357D01*
X16764643Y-14846071D01*
X16750357Y-14817500D01*
X16721786Y-14803214D01*
X16678928Y-14803214D01*
X16650357Y-14788929D01*
X16636071Y-14760357D01*
X16636071Y-14746071D01*
X16650357Y-14717500D01*
X16678928Y-14703214D01*
X16721786Y-14703214D01*
X16750357Y-14717500D01*
X16864643Y-15017500D02*
X16878928Y-15003214D01*
X16907500Y-14960357D01*
X16921786Y-14931786D01*
X16936071Y-14888929D01*
X16950357Y-14817500D01*
X16950357Y-14760357D01*
X16936071Y-14688929D01*
X16921786Y-14646071D01*
X16907500Y-14617500D01*
X16878928Y-14574643D01*
X16864643Y-14560357D01*
X10092500Y-15163500D02*
G75*
G03X10092500Y-15163500I-25000J0D01*
G01*
X10436071Y-14999214D02*
X10464643Y-14999214D01*
X10493214Y-15013500D01*
X10507500Y-15027786D01*
X10521786Y-15056357D01*
X10536071Y-15113500D01*
X10536071Y-15184929D01*
X10521786Y-15242071D01*
X10507500Y-15270643D01*
X10493214Y-15284929D01*
X10464643Y-15299214D01*
X10436071Y-15299214D01*
X10407500Y-15284929D01*
X10393214Y-15270643D01*
X10378928Y-15242071D01*
X10364643Y-15184929D01*
X10364643Y-15113500D01*
X10378928Y-15056357D01*
X10393214Y-15027786D01*
X10407500Y-15013500D01*
X10436071Y-14999214D01*
X10664643Y-15270643D02*
X10678928Y-15284929D01*
X10664643Y-15299214D01*
X10650357Y-15284929D01*
X10664643Y-15270643D01*
X10664643Y-15299214D01*
X10950357Y-14999214D02*
X10807500Y-14999214D01*
X10793214Y-15142071D01*
X10807500Y-15127786D01*
X10836071Y-15113500D01*
X10907500Y-15113500D01*
X10936071Y-15127786D01*
X10950357Y-15142071D01*
X10964643Y-15170643D01*
X10964643Y-15242071D01*
X10950357Y-15270643D01*
X10936071Y-15284929D01*
X10907500Y-15299214D01*
X10836071Y-15299214D01*
X10807500Y-15284929D01*
X10793214Y-15270643D01*
X11150357Y-14999214D02*
X11178928Y-14999214D01*
X11207500Y-15013500D01*
X11221786Y-15027786D01*
X11236071Y-15056357D01*
X11250357Y-15113500D01*
X11250357Y-15184929D01*
X11236071Y-15242071D01*
X11221786Y-15270643D01*
X11207500Y-15284929D01*
X11178928Y-15299214D01*
X11150357Y-15299214D01*
X11121786Y-15284929D01*
X11107500Y-15270643D01*
X11093214Y-15242071D01*
X11078928Y-15184929D01*
X11078928Y-15113500D01*
X11093214Y-15056357D01*
X11107500Y-15027786D01*
X11121786Y-15013500D01*
X11150357Y-14999214D01*
X11378928Y-15299214D02*
X11378928Y-15099214D01*
X11378928Y-15127786D02*
X11393214Y-15113500D01*
X11421786Y-15099214D01*
X11464643Y-15099214D01*
X11493214Y-15113500D01*
X11507500Y-15142071D01*
X11507500Y-15299214D01*
X11507500Y-15142071D02*
X11521786Y-15113500D01*
X11550357Y-15099214D01*
X11593214Y-15099214D01*
X11621786Y-15113500D01*
X11636071Y-15142071D01*
X11636071Y-15299214D01*
X11778928Y-15299214D02*
X11778928Y-15099214D01*
X11778928Y-15127786D02*
X11793214Y-15113500D01*
X11821786Y-15099214D01*
X11864643Y-15099214D01*
X11893214Y-15113500D01*
X11907500Y-15142071D01*
X11907500Y-15299214D01*
X11907500Y-15142071D02*
X11921786Y-15113500D01*
X11950357Y-15099214D01*
X11993214Y-15099214D01*
X12021786Y-15113500D01*
X12036071Y-15142071D01*
X12036071Y-15299214D01*
X12621786Y-14984929D02*
X12364643Y-15370643D01*
X13007500Y-14999214D02*
X13036071Y-14999214D01*
X13064643Y-15013500D01*
X13078928Y-15027786D01*
X13093214Y-15056357D01*
X13107500Y-15113500D01*
X13107500Y-15184929D01*
X13093214Y-15242071D01*
X13078928Y-15270643D01*
X13064643Y-15284929D01*
X13036071Y-15299214D01*
X13007500Y-15299214D01*
X12978928Y-15284929D01*
X12964643Y-15270643D01*
X12950357Y-15242071D01*
X12936071Y-15184929D01*
X12936071Y-15113500D01*
X12950357Y-15056357D01*
X12964643Y-15027786D01*
X12978928Y-15013500D01*
X13007500Y-14999214D01*
X13236071Y-15270643D02*
X13250357Y-15284929D01*
X13236071Y-15299214D01*
X13221786Y-15284929D01*
X13236071Y-15270643D01*
X13236071Y-15299214D01*
X13436071Y-14999214D02*
X13464643Y-14999214D01*
X13493214Y-15013500D01*
X13507500Y-15027786D01*
X13521786Y-15056357D01*
X13536071Y-15113500D01*
X13536071Y-15184929D01*
X13521786Y-15242071D01*
X13507500Y-15270643D01*
X13493214Y-15284929D01*
X13464643Y-15299214D01*
X13436071Y-15299214D01*
X13407500Y-15284929D01*
X13393214Y-15270643D01*
X13378928Y-15242071D01*
X13364643Y-15184929D01*
X13364643Y-15113500D01*
X13378928Y-15056357D01*
X13393214Y-15027786D01*
X13407500Y-15013500D01*
X13436071Y-14999214D01*
X13650357Y-15027786D02*
X13664643Y-15013500D01*
X13693214Y-14999214D01*
X13764643Y-14999214D01*
X13793214Y-15013500D01*
X13807500Y-15027786D01*
X13821786Y-15056357D01*
X13821786Y-15084929D01*
X13807500Y-15127786D01*
X13636071Y-15299214D01*
X13821786Y-15299214D01*
X14007500Y-14999214D02*
X14036071Y-14999214D01*
X14064643Y-15013500D01*
X14078928Y-15027786D01*
X14093214Y-15056357D01*
X14107500Y-15113500D01*
X14107500Y-15184929D01*
X14093214Y-15242071D01*
X14078928Y-15270643D01*
X14064643Y-15284929D01*
X14036071Y-15299214D01*
X14007500Y-15299214D01*
X13978928Y-15284929D01*
X13964643Y-15270643D01*
X13950357Y-15242071D01*
X13936071Y-15184929D01*
X13936071Y-15113500D01*
X13950357Y-15056357D01*
X13964643Y-15027786D01*
X13978928Y-15013500D01*
X14007500Y-14999214D01*
X14221786Y-14999214D02*
X14221786Y-15056357D01*
X14336071Y-14999214D02*
X14336071Y-15056357D01*
X14778928Y-15413500D02*
X14764643Y-15399214D01*
X14736071Y-15356357D01*
X14721786Y-15327786D01*
X14707500Y-15284929D01*
X14693214Y-15213500D01*
X14693214Y-15156357D01*
X14707500Y-15084929D01*
X14721786Y-15042071D01*
X14736071Y-15013500D01*
X14764643Y-14970643D01*
X14778928Y-14956357D01*
X14878928Y-15027786D02*
X14893214Y-15013500D01*
X14921786Y-14999214D01*
X14993214Y-14999214D01*
X15021786Y-15013500D01*
X15036071Y-15027786D01*
X15050357Y-15056357D01*
X15050357Y-15084929D01*
X15036071Y-15127786D01*
X14864643Y-15299214D01*
X15050357Y-15299214D01*
X15407500Y-15299214D02*
X15407500Y-14999214D01*
X15536071Y-15299214D02*
X15536071Y-15142071D01*
X15521786Y-15113500D01*
X15493214Y-15099214D01*
X15450357Y-15099214D01*
X15421786Y-15113500D01*
X15407500Y-15127786D01*
X15721786Y-15299214D02*
X15693214Y-15284929D01*
X15678928Y-15270643D01*
X15664643Y-15242071D01*
X15664643Y-15156357D01*
X15678928Y-15127786D01*
X15693214Y-15113500D01*
X15721786Y-15099214D01*
X15764643Y-15099214D01*
X15793214Y-15113500D01*
X15807500Y-15127786D01*
X15821786Y-15156357D01*
X15821786Y-15242071D01*
X15807500Y-15270643D01*
X15793214Y-15284929D01*
X15764643Y-15299214D01*
X15721786Y-15299214D01*
X15993214Y-15299214D02*
X15964643Y-15284929D01*
X15950357Y-15256357D01*
X15950357Y-14999214D01*
X16221786Y-15284929D02*
X16193214Y-15299214D01*
X16136071Y-15299214D01*
X16107500Y-15284929D01*
X16093214Y-15256357D01*
X16093214Y-15142071D01*
X16107500Y-15113500D01*
X16136071Y-15099214D01*
X16193214Y-15099214D01*
X16221786Y-15113500D01*
X16236071Y-15142071D01*
X16236071Y-15170643D01*
X16093214Y-15199214D01*
X16350357Y-15284929D02*
X16378928Y-15299214D01*
X16436071Y-15299214D01*
X16464643Y-15284929D01*
X16478928Y-15256357D01*
X16478928Y-15242071D01*
X16464643Y-15213500D01*
X16436071Y-15199214D01*
X16393214Y-15199214D01*
X16364643Y-15184929D01*
X16350357Y-15156357D01*
X16350357Y-15142071D01*
X16364643Y-15113500D01*
X16393214Y-15099214D01*
X16436071Y-15099214D01*
X16464643Y-15113500D01*
X16578928Y-15413500D02*
X16593214Y-15399214D01*
X16621786Y-15356357D01*
X16636071Y-15327786D01*
X16650357Y-15284929D01*
X16664643Y-15213500D01*
X16664643Y-15156357D01*
X16650357Y-15084929D01*
X16636071Y-15042071D01*
X16621786Y-15013500D01*
X16593214Y-14970643D01*
X16578928Y-14956357D01*
X10042500Y-15509500D02*
X10042500Y-15609500D01*
X9992500Y-15559500D02*
X10092500Y-15559500D01*
X10536071Y-15695214D02*
X10364643Y-15695214D01*
X10450357Y-15695214D02*
X10450357Y-15395214D01*
X10421786Y-15438071D01*
X10393214Y-15466643D01*
X10364643Y-15480929D01*
X10664643Y-15666643D02*
X10678928Y-15680929D01*
X10664643Y-15695214D01*
X10650357Y-15680929D01*
X10664643Y-15666643D01*
X10664643Y-15695214D01*
X10864643Y-15395214D02*
X10893214Y-15395214D01*
X10921786Y-15409500D01*
X10936071Y-15423786D01*
X10950357Y-15452357D01*
X10964643Y-15509500D01*
X10964643Y-15580929D01*
X10950357Y-15638071D01*
X10936071Y-15666643D01*
X10921786Y-15680929D01*
X10893214Y-15695214D01*
X10864643Y-15695214D01*
X10836071Y-15680929D01*
X10821786Y-15666643D01*
X10807500Y-15638071D01*
X10793214Y-15580929D01*
X10793214Y-15509500D01*
X10807500Y-15452357D01*
X10821786Y-15423786D01*
X10836071Y-15409500D01*
X10864643Y-15395214D01*
X11150357Y-15395214D02*
X11178928Y-15395214D01*
X11207500Y-15409500D01*
X11221786Y-15423786D01*
X11236071Y-15452357D01*
X11250357Y-15509500D01*
X11250357Y-15580929D01*
X11236071Y-15638071D01*
X11221786Y-15666643D01*
X11207500Y-15680929D01*
X11178928Y-15695214D01*
X11150357Y-15695214D01*
X11121786Y-15680929D01*
X11107500Y-15666643D01*
X11093214Y-15638071D01*
X11078928Y-15580929D01*
X11078928Y-15509500D01*
X11093214Y-15452357D01*
X11107500Y-15423786D01*
X11121786Y-15409500D01*
X11150357Y-15395214D01*
X11378928Y-15695214D02*
X11378928Y-15495214D01*
X11378928Y-15523786D02*
X11393214Y-15509500D01*
X11421786Y-15495214D01*
X11464643Y-15495214D01*
X11493214Y-15509500D01*
X11507500Y-15538071D01*
X11507500Y-15695214D01*
X11507500Y-15538071D02*
X11521786Y-15509500D01*
X11550357Y-15495214D01*
X11593214Y-15495214D01*
X11621786Y-15509500D01*
X11636071Y-15538071D01*
X11636071Y-15695214D01*
X11778928Y-15695214D02*
X11778928Y-15495214D01*
X11778928Y-15523786D02*
X11793214Y-15509500D01*
X11821786Y-15495214D01*
X11864643Y-15495214D01*
X11893214Y-15509500D01*
X11907500Y-15538071D01*
X11907500Y-15695214D01*
X11907500Y-15538071D02*
X11921786Y-15509500D01*
X11950357Y-15495214D01*
X11993214Y-15495214D01*
X12021786Y-15509500D01*
X12036071Y-15538071D01*
X12036071Y-15695214D01*
X12621786Y-15380929D02*
X12364643Y-15766643D01*
X13007500Y-15395214D02*
X13036071Y-15395214D01*
X13064643Y-15409500D01*
X13078928Y-15423786D01*
X13093214Y-15452357D01*
X13107500Y-15509500D01*
X13107500Y-15580929D01*
X13093214Y-15638071D01*
X13078928Y-15666643D01*
X13064643Y-15680929D01*
X13036071Y-15695214D01*
X13007500Y-15695214D01*
X12978928Y-15680929D01*
X12964643Y-15666643D01*
X12950357Y-15638071D01*
X12936071Y-15580929D01*
X12936071Y-15509500D01*
X12950357Y-15452357D01*
X12964643Y-15423786D01*
X12978928Y-15409500D01*
X13007500Y-15395214D01*
X13236071Y-15666643D02*
X13250357Y-15680929D01*
X13236071Y-15695214D01*
X13221786Y-15680929D01*
X13236071Y-15666643D01*
X13236071Y-15695214D01*
X13436071Y-15395214D02*
X13464643Y-15395214D01*
X13493214Y-15409500D01*
X13507500Y-15423786D01*
X13521786Y-15452357D01*
X13536071Y-15509500D01*
X13536071Y-15580929D01*
X13521786Y-15638071D01*
X13507500Y-15666643D01*
X13493214Y-15680929D01*
X13464643Y-15695214D01*
X13436071Y-15695214D01*
X13407500Y-15680929D01*
X13393214Y-15666643D01*
X13378928Y-15638071D01*
X13364643Y-15580929D01*
X13364643Y-15509500D01*
X13378928Y-15452357D01*
X13393214Y-15423786D01*
X13407500Y-15409500D01*
X13436071Y-15395214D01*
X13636071Y-15395214D02*
X13821786Y-15395214D01*
X13721786Y-15509500D01*
X13764643Y-15509500D01*
X13793214Y-15523786D01*
X13807500Y-15538071D01*
X13821786Y-15566643D01*
X13821786Y-15638071D01*
X13807500Y-15666643D01*
X13793214Y-15680929D01*
X13764643Y-15695214D01*
X13678928Y-15695214D01*
X13650357Y-15680929D01*
X13636071Y-15666643D01*
X13964643Y-15695214D02*
X14021786Y-15695214D01*
X14050357Y-15680929D01*
X14064643Y-15666643D01*
X14093214Y-15623786D01*
X14107500Y-15566643D01*
X14107500Y-15452357D01*
X14093214Y-15423786D01*
X14078928Y-15409500D01*
X14050357Y-15395214D01*
X13993214Y-15395214D01*
X13964643Y-15409500D01*
X13950357Y-15423786D01*
X13936071Y-15452357D01*
X13936071Y-15523786D01*
X13950357Y-15552357D01*
X13964643Y-15566643D01*
X13993214Y-15580929D01*
X14050357Y-15580929D01*
X14078928Y-15566643D01*
X14093214Y-15552357D01*
X14107500Y-15523786D01*
X14221786Y-15395214D02*
X14221786Y-15452357D01*
X14336071Y-15395214D02*
X14336071Y-15452357D01*
X14778928Y-15809500D02*
X14764643Y-15795214D01*
X14736071Y-15752357D01*
X14721786Y-15723786D01*
X14707500Y-15680929D01*
X14693214Y-15609500D01*
X14693214Y-15552357D01*
X14707500Y-15480929D01*
X14721786Y-15438071D01*
X14736071Y-15409500D01*
X14764643Y-15366643D01*
X14778928Y-15352357D01*
X14936071Y-15523786D02*
X14907500Y-15509500D01*
X14893214Y-15495214D01*
X14878928Y-15466643D01*
X14878928Y-15452357D01*
X14893214Y-15423786D01*
X14907500Y-15409500D01*
X14936071Y-15395214D01*
X14993214Y-15395214D01*
X15021786Y-15409500D01*
X15036071Y-15423786D01*
X15050357Y-15452357D01*
X15050357Y-15466643D01*
X15036071Y-15495214D01*
X15021786Y-15509500D01*
X14993214Y-15523786D01*
X14936071Y-15523786D01*
X14907500Y-15538071D01*
X14893214Y-15552357D01*
X14878928Y-15580929D01*
X14878928Y-15638071D01*
X14893214Y-15666643D01*
X14907500Y-15680929D01*
X14936071Y-15695214D01*
X14993214Y-15695214D01*
X15021786Y-15680929D01*
X15036071Y-15666643D01*
X15050357Y-15638071D01*
X15050357Y-15580929D01*
X15036071Y-15552357D01*
X15021786Y-15538071D01*
X14993214Y-15523786D01*
X15407500Y-15695214D02*
X15407500Y-15395214D01*
X15536071Y-15695214D02*
X15536071Y-15538071D01*
X15521786Y-15509500D01*
X15493214Y-15495214D01*
X15450357Y-15495214D01*
X15421786Y-15509500D01*
X15407500Y-15523786D01*
X15721786Y-15695214D02*
X15693214Y-15680929D01*
X15678928Y-15666643D01*
X15664643Y-15638071D01*
X15664643Y-15552357D01*
X15678928Y-15523786D01*
X15693214Y-15509500D01*
X15721786Y-15495214D01*
X15764643Y-15495214D01*
X15793214Y-15509500D01*
X15807500Y-15523786D01*
X15821786Y-15552357D01*
X15821786Y-15638071D01*
X15807500Y-15666643D01*
X15793214Y-15680929D01*
X15764643Y-15695214D01*
X15721786Y-15695214D01*
X15993214Y-15695214D02*
X15964643Y-15680929D01*
X15950357Y-15652357D01*
X15950357Y-15395214D01*
X16221786Y-15680929D02*
X16193214Y-15695214D01*
X16136071Y-15695214D01*
X16107500Y-15680929D01*
X16093214Y-15652357D01*
X16093214Y-15538071D01*
X16107500Y-15509500D01*
X16136071Y-15495214D01*
X16193214Y-15495214D01*
X16221786Y-15509500D01*
X16236071Y-15538071D01*
X16236071Y-15566643D01*
X16093214Y-15595214D01*
X16350357Y-15680929D02*
X16378928Y-15695214D01*
X16436071Y-15695214D01*
X16464643Y-15680929D01*
X16478928Y-15652357D01*
X16478928Y-15638071D01*
X16464643Y-15609500D01*
X16436071Y-15595214D01*
X16393214Y-15595214D01*
X16364643Y-15580929D01*
X16350357Y-15552357D01*
X16350357Y-15538071D01*
X16364643Y-15509500D01*
X16393214Y-15495214D01*
X16436071Y-15495214D01*
X16464643Y-15509500D01*
X16578928Y-15809500D02*
X16593214Y-15795214D01*
X16621786Y-15752357D01*
X16636071Y-15723786D01*
X16650357Y-15680929D01*
X16664643Y-15609500D01*
X16664643Y-15552357D01*
X16650357Y-15480929D01*
X16636071Y-15438071D01*
X16621786Y-15409500D01*
X16593214Y-15366643D01*
X16578928Y-15352357D01*
X10029529Y-16107529D02*
X10029529Y-15803471D01*
X9725471Y-15803471D01*
X9725471Y-16107529D01*
X10029529Y-16107529D01*
X10507500Y-15891214D02*
X10507500Y-16091214D01*
X10436071Y-15776929D02*
X10364643Y-15991214D01*
X10550357Y-15991214D01*
X10664643Y-16062643D02*
X10678928Y-16076929D01*
X10664643Y-16091214D01*
X10650357Y-16076929D01*
X10664643Y-16062643D01*
X10664643Y-16091214D01*
X10778928Y-15791214D02*
X10964643Y-15791214D01*
X10864643Y-15905500D01*
X10907500Y-15905500D01*
X10936071Y-15919786D01*
X10950357Y-15934071D01*
X10964643Y-15962643D01*
X10964643Y-16034071D01*
X10950357Y-16062643D01*
X10936071Y-16076929D01*
X10907500Y-16091214D01*
X10821786Y-16091214D01*
X10793214Y-16076929D01*
X10778928Y-16062643D01*
X11150357Y-15791214D02*
X11178928Y-15791214D01*
X11207500Y-15805500D01*
X11221786Y-15819786D01*
X11236071Y-15848357D01*
X11250357Y-15905500D01*
X11250357Y-15976929D01*
X11236071Y-16034071D01*
X11221786Y-16062643D01*
X11207500Y-16076929D01*
X11178928Y-16091214D01*
X11150357Y-16091214D01*
X11121786Y-16076929D01*
X11107500Y-16062643D01*
X11093214Y-16034071D01*
X11078928Y-15976929D01*
X11078928Y-15905500D01*
X11093214Y-15848357D01*
X11107500Y-15819786D01*
X11121786Y-15805500D01*
X11150357Y-15791214D01*
X11378928Y-16091214D02*
X11378928Y-15891214D01*
X11378928Y-15919786D02*
X11393214Y-15905500D01*
X11421786Y-15891214D01*
X11464643Y-15891214D01*
X11493214Y-15905500D01*
X11507500Y-15934071D01*
X11507500Y-16091214D01*
X11507500Y-15934071D02*
X11521786Y-15905500D01*
X11550357Y-15891214D01*
X11593214Y-15891214D01*
X11621786Y-15905500D01*
X11636071Y-15934071D01*
X11636071Y-16091214D01*
X11778928Y-16091214D02*
X11778928Y-15891214D01*
X11778928Y-15919786D02*
X11793214Y-15905500D01*
X11821786Y-15891214D01*
X11864643Y-15891214D01*
X11893214Y-15905500D01*
X11907500Y-15934071D01*
X11907500Y-16091214D01*
X11907500Y-15934071D02*
X11921786Y-15905500D01*
X11950357Y-15891214D01*
X11993214Y-15891214D01*
X12021786Y-15905500D01*
X12036071Y-15934071D01*
X12036071Y-16091214D01*
X12621786Y-15776929D02*
X12364643Y-16162643D01*
X13007500Y-15791214D02*
X13036071Y-15791214D01*
X13064643Y-15805500D01*
X13078928Y-15819786D01*
X13093214Y-15848357D01*
X13107500Y-15905500D01*
X13107500Y-15976929D01*
X13093214Y-16034071D01*
X13078928Y-16062643D01*
X13064643Y-16076929D01*
X13036071Y-16091214D01*
X13007500Y-16091214D01*
X12978928Y-16076929D01*
X12964643Y-16062643D01*
X12950357Y-16034071D01*
X12936071Y-15976929D01*
X12936071Y-15905500D01*
X12950357Y-15848357D01*
X12964643Y-15819786D01*
X12978928Y-15805500D01*
X13007500Y-15791214D01*
X13236071Y-16062643D02*
X13250357Y-16076929D01*
X13236071Y-16091214D01*
X13221786Y-16076929D01*
X13236071Y-16062643D01*
X13236071Y-16091214D01*
X13536071Y-16091214D02*
X13364643Y-16091214D01*
X13450357Y-16091214D02*
X13450357Y-15791214D01*
X13421786Y-15834071D01*
X13393214Y-15862643D01*
X13364643Y-15876929D01*
X13793214Y-15791214D02*
X13736071Y-15791214D01*
X13707500Y-15805500D01*
X13693214Y-15819786D01*
X13664643Y-15862643D01*
X13650357Y-15919786D01*
X13650357Y-16034071D01*
X13664643Y-16062643D01*
X13678928Y-16076929D01*
X13707500Y-16091214D01*
X13764643Y-16091214D01*
X13793214Y-16076929D01*
X13807500Y-16062643D01*
X13821786Y-16034071D01*
X13821786Y-15962643D01*
X13807500Y-15934071D01*
X13793214Y-15919786D01*
X13764643Y-15905500D01*
X13707500Y-15905500D01*
X13678928Y-15919786D01*
X13664643Y-15934071D01*
X13650357Y-15962643D01*
X13964643Y-16091214D02*
X14021786Y-16091214D01*
X14050357Y-16076929D01*
X14064643Y-16062643D01*
X14093214Y-16019786D01*
X14107500Y-15962643D01*
X14107500Y-15848357D01*
X14093214Y-15819786D01*
X14078928Y-15805500D01*
X14050357Y-15791214D01*
X13993214Y-15791214D01*
X13964643Y-15805500D01*
X13950357Y-15819786D01*
X13936071Y-15848357D01*
X13936071Y-15919786D01*
X13950357Y-15948357D01*
X13964643Y-15962643D01*
X13993214Y-15976929D01*
X14050357Y-15976929D01*
X14078928Y-15962643D01*
X14093214Y-15948357D01*
X14107500Y-15919786D01*
X14221786Y-15791214D02*
X14221786Y-15848357D01*
X14336071Y-15791214D02*
X14336071Y-15848357D01*
X14778928Y-16205500D02*
X14764643Y-16191214D01*
X14736071Y-16148357D01*
X14721786Y-16119786D01*
X14707500Y-16076929D01*
X14693214Y-16005500D01*
X14693214Y-15948357D01*
X14707500Y-15876929D01*
X14721786Y-15834071D01*
X14736071Y-15805500D01*
X14764643Y-15762643D01*
X14778928Y-15748357D01*
X14878928Y-15819786D02*
X14893214Y-15805500D01*
X14921786Y-15791214D01*
X14993214Y-15791214D01*
X15021786Y-15805500D01*
X15036071Y-15819786D01*
X15050357Y-15848357D01*
X15050357Y-15876929D01*
X15036071Y-15919786D01*
X14864643Y-16091214D01*
X15050357Y-16091214D01*
X15407500Y-16091214D02*
X15407500Y-15791214D01*
X15536071Y-16091214D02*
X15536071Y-15934071D01*
X15521786Y-15905500D01*
X15493214Y-15891214D01*
X15450357Y-15891214D01*
X15421786Y-15905500D01*
X15407500Y-15919786D01*
X15721786Y-16091214D02*
X15693214Y-16076929D01*
X15678928Y-16062643D01*
X15664643Y-16034071D01*
X15664643Y-15948357D01*
X15678928Y-15919786D01*
X15693214Y-15905500D01*
X15721786Y-15891214D01*
X15764643Y-15891214D01*
X15793214Y-15905500D01*
X15807500Y-15919786D01*
X15821786Y-15948357D01*
X15821786Y-16034071D01*
X15807500Y-16062643D01*
X15793214Y-16076929D01*
X15764643Y-16091214D01*
X15721786Y-16091214D01*
X15993214Y-16091214D02*
X15964643Y-16076929D01*
X15950357Y-16048357D01*
X15950357Y-15791214D01*
X16221786Y-16076929D02*
X16193214Y-16091214D01*
X16136071Y-16091214D01*
X16107500Y-16076929D01*
X16093214Y-16048357D01*
X16093214Y-15934071D01*
X16107500Y-15905500D01*
X16136071Y-15891214D01*
X16193214Y-15891214D01*
X16221786Y-15905500D01*
X16236071Y-15934071D01*
X16236071Y-15962643D01*
X16093214Y-15991214D01*
X16350357Y-16076929D02*
X16378928Y-16091214D01*
X16436071Y-16091214D01*
X16464643Y-16076929D01*
X16478928Y-16048357D01*
X16478928Y-16034071D01*
X16464643Y-16005500D01*
X16436071Y-15991214D01*
X16393214Y-15991214D01*
X16364643Y-15976929D01*
X16350357Y-15948357D01*
X16350357Y-15934071D01*
X16364643Y-15905500D01*
X16393214Y-15891214D01*
X16436071Y-15891214D01*
X16464643Y-15905500D01*
X16578928Y-16205500D02*
X16593214Y-16191214D01*
X16621786Y-16148357D01*
X16636071Y-16119786D01*
X16650357Y-16076929D01*
X16664643Y-16005500D01*
X16664643Y-15948357D01*
X16650357Y-15876929D01*
X16636071Y-15834071D01*
X16621786Y-15805500D01*
X16593214Y-15762643D01*
X16578928Y-15748357D01*
M02*
