G04 #@! TF.GenerationSoftware,KiCad,Pcbnew,5.0.0*
G04 #@! TF.CreationDate,2018-08-14T07:54:27-04:00*
G04 #@! TF.ProjectId,telegraph,74656C6567726170682E6B696361645F,rev?*
G04 #@! TF.SameCoordinates,Original*
G04 #@! TF.FileFunction,Paste,Bot*
G04 #@! TF.FilePolarity,Positive*
%FSLAX46Y46*%
G04 Gerber Fmt 4.6, Leading zero omitted, Abs format (unit mm)*
G04 Created by KiCad (PCBNEW 5.0.0) date Tue Aug 14 07:54:27 2018*
%MOMM*%
%LPD*%
G01*
G04 APERTURE LIST*
%ADD10R,1.200000X0.750000*%
%ADD11R,2.000000X1.600000*%
%ADD12R,2.000000X2.500000*%
%ADD13R,1.800000X1.000000*%
%ADD14O,2.000000X0.800000*%
%ADD15O,0.800000X2.000000*%
%ADD16R,0.400000X0.600000*%
G04 APERTURE END LIST*
D10*
G04 #@! TO.C,C16*
X131300000Y-128100000D03*
X133200000Y-128100000D03*
G04 #@! TD*
D11*
G04 #@! TO.C,C9*
X114700000Y-132068000D03*
X118700000Y-132068000D03*
G04 #@! TD*
G04 #@! TO.C,C8*
X118450000Y-134818000D03*
X114450000Y-134818000D03*
G04 #@! TD*
D12*
G04 #@! TO.C,C13*
X126676000Y-129924000D03*
X122676000Y-129924000D03*
G04 #@! TD*
G04 #@! TO.C,C14*
X122676000Y-133480000D03*
X126676000Y-133480000D03*
G04 #@! TD*
D13*
G04 #@! TO.C,U2*
X131800000Y-101428000D03*
X120600000Y-101428000D03*
X120600000Y-120428000D03*
X131800000Y-120428000D03*
D14*
X119800000Y-105128000D03*
X119800000Y-106328000D03*
X119800000Y-107528000D03*
X119800000Y-108728000D03*
X119800000Y-109928000D03*
X119800000Y-111128000D03*
X119800000Y-112328000D03*
X119800000Y-113528000D03*
X119800000Y-114728000D03*
X119800000Y-115928000D03*
X119800000Y-117128000D03*
X119800000Y-118328000D03*
D15*
X122100000Y-120828000D03*
X123100000Y-120828000D03*
X124400000Y-120828000D03*
X125600000Y-120828000D03*
X126800000Y-120828000D03*
X128000000Y-120828000D03*
X129300000Y-120828000D03*
X130300000Y-120828000D03*
D14*
X132600000Y-118328000D03*
X132600000Y-117128000D03*
X132600000Y-115928000D03*
X132600000Y-114728000D03*
X132600000Y-113528000D03*
X132600000Y-112328000D03*
X132600000Y-111128000D03*
X132600000Y-109928000D03*
X132600000Y-108728000D03*
X132600000Y-107528000D03*
X132600000Y-106328000D03*
X132600000Y-105128000D03*
G04 #@! TD*
D16*
G04 #@! TO.C,R8*
X130200000Y-124318000D03*
X129300000Y-124318000D03*
G04 #@! TD*
G04 #@! TO.C,R9*
X122250000Y-124568000D03*
X123150000Y-124568000D03*
G04 #@! TD*
G04 #@! TO.C,R11*
X130200000Y-123068000D03*
X129300000Y-123068000D03*
G04 #@! TD*
G04 #@! TO.C,R12*
X123150000Y-123318000D03*
X122250000Y-123318000D03*
G04 #@! TD*
G04 #@! TO.C,R1*
X116500000Y-107568000D03*
X117400000Y-107568000D03*
G04 #@! TD*
G04 #@! TO.C,R4*
X116200000Y-114568000D03*
X117100000Y-114568000D03*
G04 #@! TD*
M02*
