%FSLAX45Y45*%
G04 Gerber Fmt 4.5, Leading zero omitted, Abs format (unit mm)*
G04 Created by KiCad (PCBNEW 5.0.0) date Tue Aug 14 07:54:24 2018*
%MOMM*%
%LPD*%
G01*
G04 APERTURE LIST*
%ADD10C,0.150000*%
%ADD11C,0.200000*%
%ADD12C,0.300000*%
G04 APERTURE END LIST*
D10*
X10100000Y-13800000D02*
X10100000Y-10000000D01*
X14900000Y-13800000D02*
X10100000Y-13800000D01*
X14900000Y-10000000D02*
X14900000Y-13800000D01*
X10100000Y-10000000D02*
X14900000Y-10000000D01*
D11*
D12*
X10378928Y-14273214D02*
X10378928Y-13973214D01*
X10450357Y-13973214D01*
X10493214Y-13987500D01*
X10521786Y-14016071D01*
X10536071Y-14044643D01*
X10550357Y-14101786D01*
X10550357Y-14144643D01*
X10536071Y-14201786D01*
X10521786Y-14230357D01*
X10493214Y-14258929D01*
X10450357Y-14273214D01*
X10378928Y-14273214D01*
X10678928Y-14273214D02*
X10678928Y-14073214D01*
X10678928Y-14130357D02*
X10693214Y-14101786D01*
X10707500Y-14087500D01*
X10736071Y-14073214D01*
X10764643Y-14073214D01*
X10864643Y-14273214D02*
X10864643Y-14073214D01*
X10864643Y-13973214D02*
X10850357Y-13987500D01*
X10864643Y-14001786D01*
X10878928Y-13987500D01*
X10864643Y-13973214D01*
X10864643Y-14001786D01*
X11050357Y-14273214D02*
X11021786Y-14258929D01*
X11007500Y-14230357D01*
X11007500Y-13973214D01*
X11207500Y-14273214D02*
X11178928Y-14258929D01*
X11164643Y-14230357D01*
X11164643Y-13973214D01*
X11550357Y-14273214D02*
X11550357Y-13973214D01*
X11650357Y-14187500D01*
X11750357Y-13973214D01*
X11750357Y-14273214D01*
X12021786Y-14273214D02*
X12021786Y-14116071D01*
X12007500Y-14087500D01*
X11978928Y-14073214D01*
X11921786Y-14073214D01*
X11893214Y-14087500D01*
X12021786Y-14258929D02*
X11993214Y-14273214D01*
X11921786Y-14273214D01*
X11893214Y-14258929D01*
X11878928Y-14230357D01*
X11878928Y-14201786D01*
X11893214Y-14173214D01*
X11921786Y-14158929D01*
X11993214Y-14158929D01*
X12021786Y-14144643D01*
X12164643Y-14073214D02*
X12164643Y-14373214D01*
X12164643Y-14087500D02*
X12193214Y-14073214D01*
X12250357Y-14073214D01*
X12278928Y-14087500D01*
X12293214Y-14101786D01*
X12307500Y-14130357D01*
X12307500Y-14216071D01*
X12293214Y-14244643D01*
X12278928Y-14258929D01*
X12250357Y-14273214D01*
X12193214Y-14273214D01*
X12164643Y-14258929D01*
X12436071Y-14244643D02*
X12450357Y-14258929D01*
X12436071Y-14273214D01*
X12421786Y-14258929D01*
X12436071Y-14244643D01*
X12436071Y-14273214D01*
X12436071Y-14087500D02*
X12450357Y-14101786D01*
X12436071Y-14116071D01*
X12421786Y-14101786D01*
X12436071Y-14087500D01*
X12436071Y-14116071D01*
M02*
