M48
;DRILL file {KiCad 5.0.0} date Tue Aug 14 07:54:23 2018
;FORMAT={-:-/ absolute / inch / decimal}
FMAT,2
INCH,TZ
T1C0.0130
T2C0.0197
T3C0.0394
T4C0.1693
%
G90
G05
M72
T1
X4.2697Y-5.2586
X4.5945Y-5.2586
X4.624Y-5.1405
X4.6535Y-4.5598
X4.6535Y-4.6113
X4.6535Y-4.6586
X4.7323Y-5.2881
X4.752Y-5.311
X4.7685Y-5.1151
X4.7776Y-4.233
X4.7795Y-4.3228
X4.7795Y-4.4173
X4.7815Y-4.5499
X4.811Y-4.4488
X4.8298Y-5.1151
X4.8996Y-5.0125
X4.9016Y-4.4328
X4.9094Y-4.8354
X4.9291Y-4.668
X4.9548Y-4.6435
X4.9685Y-4.5302
X4.9705Y-4.2783
X5.0079Y-4.6483
X5.0177Y-4.8846
X5.0374Y-4.6641
X5.0374Y-5.1798
X5.0472Y-4.2448
X5.0472Y-4.4023
X5.0616Y-4.6033
X5.0866Y-4.6287
X5.0965Y-4.481
X5.1063Y-4.3235
X5.126Y-4.3924
X5.1555Y-4.5204
X5.1626Y-4.3833
X5.1949Y-4.8944
X5.1949Y-4.9303
X5.1969Y-5.0835
X5.2441Y-4.7468
X5.3228Y-4.6483
X5.4803Y-4.481
T2
X5.3465Y-4.7369
X5.4213Y-4.7369
T3
X4.2729Y-4.8675
X4.2729Y-4.9675
X5.5689Y-4.3924
X5.5689Y-4.4924
X5.1685Y-5.1551
X5.1685Y-5.2551
X5.2685Y-5.1551
X5.2685Y-5.2551
T4
X4.25Y-4.294
X5.5984Y-5.1405
T0
M30
